<?xml version="1.0" encoding="UTF-8"?>
<svg id="Layer_23" data-name="Layer 23" xmlns="http://www.w3.org/2000/svg" viewBox="0 0 595.28 223.93">
  <defs>
    <style>
      .cls-1 {
        fill: #fff;
      }
    </style>
  </defs>
  <path class="cls-1" d="m520.54,223.93H74.73C33.53,223.93,0,190.4,0,149.19v-74.45C0,33.53,33.53,0,74.73,0h445.81C561.75,0,595.28,33.53,595.28,74.74v74.45c0,41.21-33.53,74.74-74.73,74.74ZM74.73,17.01c-31.83,0-57.73,25.9-57.73,57.73v74.45c0,31.83,25.9,57.73,57.73,57.73h445.81c31.83,0,57.73-25.9,57.73-57.73v-74.45c0-31.83-25.9-57.73-57.73-57.73H74.73Z"/>
</svg>