<?xml version="1.0" encoding="UTF-8"?>
<svg xmlns="http://www.w3.org/2000/svg" viewBox="0 0 831.85 400.14">
  <defs>
    <style>
      .cls-1, .cls-2 {
        fill: none;
        stroke: #000;
        stroke-miterlimit: 10;
        stroke-width: .14px;
      }

      .cls-3 {
        fill: #381f01;
      }

      .cls-2 {
        stroke-dasharray: 0 0 6.73 6.73;
      }
    </style>
  </defs>
  <g id="Layer_29" data-name="Layer 29">
    <path class="cls-3" d="m813.21,392.77H7.24v-3.85c0-6.38,0-373.27,0-373.27h7.7s0,330.54,0,369.42h798.26v7.7Z"/>
    <polygon class="cls-3" points="11.15 0 0 34.26 22.31 34.26 11.15 0"/>
    <polygon class="cls-3" points="829.07 388.98 794.8 377.83 794.8 400.14 829.07 388.98"/>
  </g>
  <g id="Layer_30" data-name="Layer 30">
    <g>
      <g>
        <line class="cls-1" x1="14.94" y1="55.95" x2="18.31" y2="55.95"/>
        <line class="cls-2" x1="25.03" y1="55.95" x2="788.56" y2="55.95"/>
        <line class="cls-1" x1="791.93" y1="55.95" x2="795.29" y2="55.95"/>
      </g>
      <g>
        <line class="cls-1" x1="14.94" y1="100.71" x2="18.31" y2="100.71"/>
        <line class="cls-2" x1="25.03" y1="100.71" x2="788.56" y2="100.71"/>
        <line class="cls-1" x1="791.93" y1="100.71" x2="795.29" y2="100.71"/>
      </g>
      <g>
        <line class="cls-1" x1="14.94" y1="145.47" x2="18.31" y2="145.47"/>
        <line class="cls-2" x1="25.03" y1="145.47" x2="788.56" y2="145.47"/>
        <line class="cls-1" x1="791.93" y1="145.47" x2="795.29" y2="145.47"/>
      </g>
      <g>
        <line class="cls-1" x1="14.94" y1="190.24" x2="18.31" y2="190.24"/>
        <line class="cls-2" x1="25.03" y1="190.24" x2="788.56" y2="190.24"/>
        <line class="cls-1" x1="791.93" y1="190.24" x2="795.29" y2="190.24"/>
      </g>
      <g>
        <line class="cls-1" x1="14.94" y1="235" x2="18.31" y2="235"/>
        <line class="cls-2" x1="25.03" y1="235" x2="788.56" y2="235"/>
        <line class="cls-1" x1="791.93" y1="235" x2="795.29" y2="235"/>
      </g>
      <g>
        <line class="cls-1" x1="14.94" y1="279.76" x2="18.31" y2="279.76"/>
        <line class="cls-2" x1="25.03" y1="279.76" x2="788.56" y2="279.76"/>
        <line class="cls-1" x1="791.93" y1="279.76" x2="795.29" y2="279.76"/>
      </g>
      <g>
        <line class="cls-1" x1="14.94" y1="324.53" x2="18.31" y2="324.53"/>
        <line class="cls-2" x1="25.03" y1="324.53" x2="788.56" y2="324.53"/>
        <line class="cls-1" x1="791.93" y1="324.53" x2="795.29" y2="324.53"/>
      </g>
      <g>
        <line class="cls-1" x1="14.94" y1="369.29" x2="18.31" y2="369.29"/>
        <line class="cls-2" x1="25.03" y1="369.29" x2="788.56" y2="369.29"/>
        <line class="cls-1" x1="791.93" y1="369.29" x2="795.29" y2="369.29"/>
      </g>
    </g>
  </g>
</svg>