<?xml version="1.0" encoding="UTF-8"?>
<svg id="Layer_14" data-name="Layer 14" xmlns="http://www.w3.org/2000/svg" viewBox="0 0 595.28 322.62">
  <defs>
    <style>
      .cls-1 {
        fill: #fff;
      }
    </style>
  </defs>
  <path class="cls-1" d="m569.89,50.79H25.38C11.36,50.79-.01,39.42-.01,25.39S11.36,0,25.38,0h544.51c14.03,0,25.39,11.37,25.39,25.39s-11.37,25.39-25.39,25.39Z"/>
  <path class="cls-1" d="m569.89,169.42H25.38C11.36,169.42-.01,158.05-.01,144.02s11.37-25.39,25.39-25.39h544.51c14.03,0,25.39,11.37,25.39,25.39s-11.37,25.39-25.39,25.39Z"/>
  <path class="cls-1" d="m569.89,322.03H25.38C11.36,322.03-.01,310.67-.01,296.64s11.37-25.39,25.39-25.39h544.51c14.03,0,25.39,11.37,25.39,25.39s-11.37,25.39-25.39,25.39Z"/>
</svg>