<?xml version="1.0" encoding="UTF-8"?>
<svg id="Layer_6" data-name="Layer 6" xmlns="http://www.w3.org/2000/svg" viewBox="0 0 366.81 581.09">
  <defs>
    <style>
      .cls-1 {
        fill: #e2c698;
      }

      .cls-2 {
        fill: #914100;
      }

      .cls-3 {
        fill: #723100;
      }

      .cls-4 {
        fill: #d6a87f;
      }

      .cls-5 {
        fill: #0c0700;
      }

      .cls-6 {
        fill: #563304;
      }
    </style>
  </defs>
  <path class="cls-5" d="m242.57,3.44c14.43-1.87,29.79,1.25,41.82,9.27,17.85,11.9,29,32.52,31.52,53.82,1.85,15.65-2.01,36.91-3.32,44.57-2.62,15.55-5.32,22.08-1.58,30.9,3.61,8.49,8.94,9.01,17.68,21.45,3.25,4.61,8.62,12.25,10.98,21.45,5.2,20.27-9.29,28.42-5.48,46.08,3.14,14.58,13.75,12.42,23.77,31.3,2.07,3.9,17.1,33.24,2.61,55.07-8.17,12.29-21.94,16.53-29.03,18.06-5.85-40.37-9.61-69.05-9.91-79.98-.04-2.01-.19-7.69-3.91-12.45-3.04-3.88-8.06-5.54-12.77-7-6.61-2.04-13.2-4.1-19.81-6.14-8.29-2.58-12.48-4.04-16.45-6.75-2-1.38-3.72-2.84-5.19-4.3-2.32-2.3-4.01-4.58-5.2-6.38-2.62-11.71-2.81-23.81-2.99-35.82-.04-3.04-.1-6.07-.14-9.11-.06-4.09-.12-8.16-.19-12.25,6.33-6.36,11.96-13.45,16.65-21.1,2.55-4.16,5.07-8.71,9.4-10.97,2.01-1.04,4.27-1.51,6.39-2.36,5.93-2.38,10.25-7.64,13.27-13.26,1.8-3.3,3.25-6.91,3.27-10.67.07-8.14-7.35-15.38-15.46-15.81-8.13-.43-15.95,5.41-18.59,13.1-3.1.81-7.59,1.7-13.01,1.67-3.77-.01-25.53-.54-39.23-18.16-8.64-11.13-9.59-23.3-9.69-28.33-.39,4.26-2.17,17.24-12.69,28.9-10.71,11.85-23.74,14.88-27.91,15.66.35,18.85,2.77,37.49,11.29,54.1,3.39,6.61,7.67,12.72,12.04,18.71,4.03,5.52,8.59,11.26,15.11,13.27,1.39.42,2.8.67,4.22.74.48,2.3.88,4.62,1.22,6.94,1.19,8.17,1.45,16.49.77,24.72-2.26,2.17-4.46,4-6.58,5.56-4.84,3.56-9.2,5.68-12.53,7.01-14.3,5.72-33.6,6.35-42.33,6.72-6.77.28-14.17.68-19.14,5.29-3.35,3.1-4.67,6.74-5.32,8.61-7.97,23.08-11.96,34.62-15.53,48.59-11.14-28.66-8.07-46.37-2.65-57.49,10.07-20.65,28.79-22.66,34.01-43.66,3.67-14.85-6.16-20.08-.8-37.79,3.77-12.48,9.35-12.22,13.59-25.01,3.09-9.33,1.46-13.52-.22-39.34-1.58-24.33-2.32-36.69.55-45.86,5.1-16.33,16.11-26.48,19.71-29.56C201.69-7.58,238.45,1.66,242.48,2.73l.09.71Z"/>
  <path class="cls-2" d="m271.58,304.08c-3.07,14.42-5.71,28.94-7.87,43.52-.28,1.83-.54,3.7-.12,5.49.43,1.84,1.57,3.43,2.58,5.03,8.13,12.67,10.93,27.92,13.55,42.73,1.17,6.64,2.35,13.43,1.19,20.07s-5.14,13.19-11.46,15.52l.16.55c-6.43,1.99-12.88,3.59-19.35,4.83-10.38,1.97-20.78,2.96-31.23,2.96-.1,0-31.55,2.23-48.37-9.93-2.59-1.87-3.71-4.36-3.71-4.36-.25-.54-.42-1.06-.55-1.59-.71-2.75-.09-5.27.12-6.26.8-3.77.99-10.01-2.01-20.77-3.7-12.68-9.33-24.74-13.33-37.31-.43-1.36-.85-2.74-1.25-4.12-1.3-4.59-2.33-9.36-2.91-14.14-1.19-9.88-.48-19.88,3.58-28.88,3.41-7.52,9-13.97,11.97-21.66l-.3-.12c.7-3.81.94-7.72.74-11.59-.58-.3-1.2.3-1.58.84-6.48,9.38-10.13,20.45-14.81,30.85-2.81,6.25-5.98,12.25-10.36,17.49-.99,1.17-2.04,2.32-3.39,3.03-1.19.64-2.54.88-3.87,1.1-5.64.9-11.39,1.16-17.09.78l-.12.19c-5.9-3.65-9.98-7.72-12.49-10.54,5.84-14.03,9.27-25.71,11.3-33.62,3.58-13.97,7.56-25.5,15.53-48.59.65-1.87,1.97-5.51,5.32-8.61,4.97-4.61,12.38-5.01,19.14-5.29,8.72-.38,28.03-1,42.33-6.72,3.33-1.33,7.69-3.45,12.53-7.01l.29.39c-4.9,13.9-.78,28.23,9.04,34.97,11.22,7.68,24.85,2.06,27.53.87,12.65-5.64,20.77-19.46,21.16-35.37h.03c1.46,1.45,3.19,2.91,5.19,4.29,3.97,2.71,8.16,4.17,16.45,6.75,6.61,2.04,13.2,4.1,19.81,6.14,4.71,1.46,9.72,3.12,12.77,7,3.72,4.75,3.87,10.43,3.91,12.45.3,10.93,4.06,39.6,9.91,79.98.3,2.07.61,4.16.91,6.29-1.77,1.04-3.97,2.25-6.55,3.42-5.2,2.41-11.98,4.77-20.11,5.85-10.4,1.39-19.45.2-26.23-1.46-3.81-.93-6.9-2.01-9.13-2.88.39-14.19.77-28.37,1.14-42.55Zm-31.01,69.11c-7.04-6.51-16.52-10.09-26.08-10.87-8.3-.68-15.97.97-23.94,2.94-1.9.46-5.56.06-5.83,2.58-.42,4.2,5.46,3,7.56,2.17,2.83-1.12,5.67-2.22,8.62-2.94,6.59-1.61,13.55-1.25,20.22.12,6.65,1.35,13.07,3.68,19.45,6Z"/>
  <path class="cls-6" d="m328.07,476.13c-4.65,0-9.29.01-13.94.01,5.29-16.93,7.83-26.37,9.3-35.39,1.13,6.84,2.16,13.9,3.07,21.22.59,4.81,1.12,9.54,1.57,14.16Z"/>
  <path class="cls-4" d="m325.91,345.12l-.04,5.35h-.06c-8.04,5.12-18.04,5.91-27.58,5.94-5.94.03-11.9-.19-17.82-.65-.28-2.09-.57-4.16-.84-6.25,6.78,1.67,15.82,2.85,26.23,1.46,8.13-1.09,14.91-3.45,20.11-5.85Z"/>
  <path class="cls-1" d="m325.86,350.46c-.17,19.84-.33,39.66-.51,59.49.19,5.85.13,14.23-1.01,24.2-.26,2.25-.55,4.41-.91,6.59h0c-1.48,9.03-4.01,18.48-9.3,35.4-11.22.01-22.45.03-33.68.03.03-.59.06-1.19.09-1.75.61-15.07-1.26-22.72.33-38.24.12-1.09.23-2.16.36-3.2,1.45-11.43,4.03-20.55,5.98-26.46-2.28-16.93-4.54-33.85-6.81-50.76,5.93.46,11.88.68,17.82.65,9.54-.03,19.53-.83,27.58-5.94h.06Z"/>
  <path class="cls-1" d="m314.13,476.14c-.13.42-.28.84-.41,1.28-3.87,12.27-8.85,27.49-15.07,44.92-4.43,19.36-11.07,32.76-15.9,40.92-2.84,4.8-5.62,8.56-10.14,11.88-9.22,6.74-20.36,6.27-26.03,5.54.39-2.87,1.22-7.26,3.27-12.2,3.71-8.93,8.17-11.96,12.61-20.14,2.03-3.74,4.52-9.43,5.88-17.33-1.45,1.67-4.3,3.67-7.85,6.12-2.42,1.67-5.3,3.27-8.16,2.56,2.51-3.75,5.36-7.71,8.61-11.75,4.51-5.62,9-10.49,13.26-14.67,4.38-15.39,5.8-28.11,6.25-37.1,11.23,0,22.46-.01,33.68-.03Z"/>
  <path class="cls-1" d="m210.05,180.71c-1.42-.07-2.83-.32-4.22-.74-6.52-2.01-11.09-7.75-15.11-13.27-4.38-5.98-8.65-12.1-12.04-18.71-8.52-16.61-10.94-35.24-11.29-54.1,4.17-.78,17.2-3.81,27.91-15.66,10.52-11.65,12.3-24.63,12.69-28.9.1,5.03,1.06,17.2,9.69,28.33,13.69,17.62,35.46,18.14,39.23,18.16,5.42.03,9.91-.85,13.01-1.67,2.64-7.69,10.46-13.53,18.59-13.1,8.12.43,15.53,7.67,15.46,15.81-.03,3.75-1.48,7.36-3.27,10.67-3.03,5.62-7.35,10.88-13.27,13.26-2.12.85-4.38,1.32-6.39,2.36-4.33,2.26-6.85,6.81-9.4,10.97-4.7,7.65-10.32,14.74-16.65,21.1-8.04,8.09-17.26,15-27.3,20.39-5.45,2.93-11.62,5.45-17.64,5.1Z"/>
  <path class="cls-3" d="m280.41,355.75c2.28,16.91,4.54,33.84,6.81,50.76-1.96,5.91-4.54,15.03-5.98,26.46-3.87,1.48-7.74,2.81-11.62,4.01l-.16-.55c6.32-2.33,10.3-8.88,11.46-15.52s-.01-13.43-1.19-20.07c-2.62-14.81-5.42-30.07-13.55-42.73-1.01-1.59-2.14-3.19-2.58-5.03-.42-1.8-.16-3.67.12-5.49,2.16-14.58,4.8-29.1,7.87-43.52-.38,14.17-.75,28.36-1.14,42.55,2.23.87,5.32,1.96,9.13,2.88.28,2.09.57,4.16.84,6.25Z"/>
  <path class="cls-6" d="m281.23,432.98c-.13,1.04-.25,2.12-.36,3.2-1.59,15.52.28,23.17-.33,38.24-.03.57-.06,1.16-.09,1.75-44.65.06-89.29.1-133.96.14,1.71-7.13,4.23-15.39,7.96-24.32,3.8-9.1,8.01-16.81,11.96-23.11.13.54.3,1.06.55,1.59,0,0,1.12,2.49,3.71,4.36,16.82,12.16,48.27,9.93,48.37,9.93,10.45,0,20.85-.99,31.23-2.96,6.46-1.23,12.91-2.84,19.35-4.83,3.88-1.2,7.75-2.54,11.62-4.01Z"/>
  <path class="cls-1" d="m263.51,218.78h-.03c-.39,15.93-8.51,29.75-21.16,35.39-2.68,1.19-16.32,6.81-27.53-.87-9.82-6.74-13.94-21.07-9.04-34.97l-.29-.39c2.12-1.57,4.32-3.39,6.58-5.56.68-8.23.42-16.55-.77-24.72,4.87.36,9.81.71,14.53-.45,2.12-.52,4.14-1.35,6.16-2.17,4.7-1.94,9.38-4,13.55-6.88,4-2.75,7.55-6.32,9.67-10.68.04,3.04.1,6.07.14,9.11.17,12.01.36,24.11,2.99,35.82,1.19,1.8,2.88,4.07,5.2,6.38Z"/>
  <path class="cls-4" d="m254.99,155.22c.07,4.09.13,8.16.19,12.25-2.12,4.36-5.67,7.93-9.67,10.68-4.17,2.88-8.85,4.94-13.55,6.88-2.01.83-4.04,1.65-6.16,2.17-4.72,1.16-9.67.81-14.53.45-.33-2.32-.74-4.64-1.22-6.94,6.01.35,12.19-2.17,17.64-5.1,10.04-5.39,19.26-12.3,27.3-20.39Z"/>
  <path class="cls-3" d="m214.48,362.32c9.56.78,19.04,4.36,26.08,10.87-6.38-2.32-12.8-4.65-19.45-6-6.67-1.36-13.62-1.72-20.22-.12-2.96.72-5.8,1.83-8.62,2.94-2.1.83-7.98,2.03-7.56-2.17.26-2.52,3.93-2.12,5.83-2.58,7.97-1.97,15.64-3.62,23.94-2.94Z"/>
  <path class="cls-3" d="m163,284.04c.2,3.87-.04,7.78-.74,11.59l.3.12c-2.97,7.69-8.56,14.14-11.97,21.66l-3.99-1.68c4.68-10.4,8.33-21.48,14.81-30.85.38-.54,1-1.14,1.58-.84Z"/>
  <path class="cls-4" d="m149.93,360.43c.39,1.38.81,2.75,1.25,4.12-.45,1.42-.88,2.78-1.3,4.09-.96-2.9-3.29-5.1-5.71-6.96-8.26-6.41-18.2-10.19-28.1-13.53-1.91-.65-3.88-1.3-5.42-2.62h-.06c.65-2.26,1.3-4.51,1.94-6.75,1.72,1.03,3.59,2.01,5.61,2.93,12.4,5.58,23.64,5.14,28.88,4.59.58,4.78,1.61,9.55,2.91,14.14Z"/>
  <path class="cls-3" d="m146.61,315.73l3.99,1.68c-4.06,9-4.77,19-3.58,28.88-5.25.55-16.48.99-28.88-4.59-2.01-.91-3.88-1.9-5.61-2.93-.25-.16-.51-.3-.74-.45l.12-.19c5.7.38,11.45.12,17.09-.78,1.33-.22,2.68-.46,3.87-1.1,1.35-.71,2.41-1.85,3.39-3.03,4.38-5.25,7.55-11.25,10.36-17.49Z"/>
  <path class="cls-1" d="m120.06,401.63c-.01-6.61-.54-13.22-1.55-19.77-.46-3.07-1.06-6.16-2.2-9.06-2.09-5.25-5.87-9.62-9.59-13.85,1.3-4.49,2.59-8.97,3.87-13.45h.06c1.54,1.33,3.51,1.99,5.42,2.64,9.9,3.35,19.84,7.13,28.1,13.53,2.42,1.85,4.75,4.06,5.71,6.96-1.8,5.71-3.25,10.38-4.27,13.69-3.23,10.45-4.45,14.03-6.46,20.39-2.62,8.25-4.27,12.26-5.3,14.23-2.71,5.23-9.06,13.81-25.69,19.9-21.06-10.13-31.49-23.71-36.18-31.01-10.04-15.66-12.29-31.53-14.82-49.36-1.85-13.11-2.52-27.33-3.19-41.44-.57-12.07-1.14-31.14-10.13-39.95-3.43-3.38-7.85-6.67-7.85-6.67-3.93-2.48-7.85-4.94-11.77-7.4-5.56-3.49-11.2-7.07-15.45-12.09C1.65,240.5-.65,228.88.16,217.9c.8-10.97,4.42-21.52,8-31.91,1.87.9,4.71,2.52,7.43,5.29,8.91,9.03,6.38,19.85,11.78,31.1,2.49,5.19,7.42,12.04,18.35,18.08-.7-3.88-1.26-8.26-1.54-13.06-.33-5.81-.17-11.07.22-15.65,3.49,3.41,8.52,9.01,12.53,17,6.17,12.29,6.59,23.43,6.84,27.27,1.94,30.47,20.93,65.63,41.27,103.54.25.48.58,1.09.97,1.83,2.25,4.25,6.46,12.68,10,24.03,2.14,6.84,3.36,12.59,4.04,16.22Z"/>
  <path class="cls-4" d="m120.06,401.63c-.68-3.62-1.9-9.38-4.04-16.22-3.54-11.35-7.75-19.78-10-24.03l.7-2.43c3.72,4.23,7.51,8.61,9.59,13.85,1.14,2.9,1.74,5.98,2.2,9.06,1.01,6.55,1.54,13.16,1.55,19.77Z"/>
</svg>