<?xml version="1.0" encoding="UTF-8"?>
<svg id="Layer_10" data-name="Layer 10" xmlns="http://www.w3.org/2000/svg" viewBox="0 0 454.96 567.64">
  <defs>
    <style>
      .cls-1 {
        fill: #e2c698;
      }

      .cls-2 {
        fill: #914100;
      }

      .cls-3 {
        fill: #e8dac8;
      }

      .cls-4 {
        fill: #723100;
      }

      .cls-5 {
        fill: #d3a159;
      }

      .cls-6 {
        fill: #d6a87f;
      }

      .cls-7 {
        fill: #0c0700;
      }

      .cls-8 {
        fill: #ffeddc;
      }

      .cls-9 {
        fill: #e8c59c;
      }
    </style>
  </defs>
  <path class="cls-2" d="m453.05,422.45c2.46,13.48,3.29,27.88-2.17,40.43-3.39,7.8-8.99,14.41-14.92,20.48-2.87,2.93-5.9,5.83-9.63,7.55-3.76,1.75-7.99,2.19-12.12,2.39-6.56.31-11.77.64-17.64-1.73-7.75-3.14-12.19-9.09-14.24-12.38,1.85-.68,11.33-4.31,16.3-14.79,5.17-10.89,1.56-20.93.9-22.66,8.24.32,14.86.2,19.45.03,4.75-.17,8.04-.42,12.58.47,4.99,1,8.87,2.85,11.4,4.29.51-1.24,1.19-3.44.34-5.55-1.36-3.29-5.68-4.24-8.04-4.75-11.5-2.48-30.86,3.83-35.73,5.49l38.85-79.38c.15.61.31,1.2.46,1.81,2.9,11.45,5.82,22.89,8.72,34.34,2.02,7.94,4.04,15.87,5.51,23.93Z"/>
  <path class="cls-3" d="m451.22,336.1l-12.85,26.25c-.02-.07-.03-.12-.05-.19-2.02-8.12-4.02-16.23-6.04-24.35l6.26,2.15,6.92-5.88,5.77,2.02Z"/>
  <path class="cls-5" d="m446.34,333.32l-.88.76-15.47-5.44c-.1-.41-.2-.8-.31-1.2l16.65,5.88Z"/>
  <path class="cls-5" d="m429.99,328.64l15.47,5.44-6.92,5.88-6.26-2.15c-.76-3.05-1.53-6.12-2.29-9.17Z"/>
  <path class="cls-4" d="m443.28,441c.85,2.1.17,4.31-.34,5.55-2.53-1.44-6.41-3.29-11.4-4.29-4.54-.9-7.83-.64-12.58-.47-4.6.17-11.21.29-19.45-.03,4.87-1.66,24.23-7.97,35.73-5.49,2.36.51,6.68,1.46,8.04,4.75Z"/>
  <path class="cls-3" d="m438.37,362.35v.02l-38.85,79.38c-10.75-8.99-20.59-15.33-28.03-19.62-8.72-5.04-14.82-7.66-19.3-8.89l20.65-41.16,4.93-9.85,22.16-44.14,11.4,4v8.55l20.94,7.17c2.02,8.12,4.02,16.23,6.04,24.35.02.07.03.12.05.19Z"/>
  <path class="cls-5" d="m432.28,337.82l-20.94-7.17v-8.55l18.65,6.55c.76,3.05,1.53,6.12,2.29,9.17Z"/>
  <path class="cls-5" d="m429.68,327.44c.1.41.2.8.31,1.2l-18.65-6.55v-1.15l18.35,6.49Z"/>
  <path class="cls-2" d="m411.3,253.43c6.12,24.67,12.26,49.33,18.38,74l-18.35-6.49v1.15l-11.4-4-22.16,44.14c-.93-5.56-1.81-10.56-2.59-14.8-1.17-6.46-2.1-11.19-2.61-13.58-.24-1.14-.73-3.39-2.61-5.05-1.48-1.32-3.07-1.73-3.83-1.87-.37,22.27-6,38.92-11.87,43.95-3,2.58-6.36,4.32-6.36,4.32-4.07,2.12-7.78,2.97-12.02,3.63-8.34,1.29-16.4,1.48-23.06,1.24,6.02,3.05,11.16,4.53,14.92,5.31,4.31.9,7.8,1.09,10.29,3.97,1.42,1.64,1.93,3.46,2.49,6.88.64,3.97,1.29,9.62,1.24,16.65-6,1.7-10.14,6.05-10.8,6.77-3.88,4.12-5.14,8.34-6.61,13.33-1.05,3.56-3.24,11.29-1.12,20.69.54,2.41.81,3.61,1.46,4.75.75,1.31,1.8,2.48,3.07,3.49l-17.55,34.98,34.54,3.24c4.75,21.32,9.5,42.65,14.24,63.95l.02.1c-26.39,5.31-48.92,3.44-63.76.95.2-1.07.39-2.14.58-3.19,7.29-40.73,7.04-73.22,5.32-95.85-.59-7.78-4.65-57.88-6.19-97.68-.2-5.34-.59-16.7,1.36-31.42.37-2.85.81-5.58,1.29-8.16,11.24-10.87,19.98-16.38,26.3-19.43,2.51-1.2,9.51-4.38,10.01-9.43.14-1.39-.1-2.66-.98-4.87-1.2-3-2.59-5.94-4.15-8.78,2.09-1.58,3.61-3.04,5.1-5.26,3.48-5.21,3.46-11.89,3.34-18.14-.2-9.72-.41-19.45-.61-29.17-.12-5.07-.22-10.16.37-15.18.05,0,.1.02.15.02,35.2,4.87,48.97,2.95,61.15,13.48,3.87,3.34,9.48,9.58,13.02,21.35Z"/>
  <path class="cls-1" d="m399.52,441.75c.66,1.73,4.27,11.77-.9,22.66-4.97,10.48-14.45,14.11-16.3,14.79-.17-.17-.34-.36-.53-.56-.03-.17-.05-.34-.07-.51l17.79-36.37Z"/>
  <path class="cls-1" d="m399.52,441.75l-17.79,36.37-.14.27c-.78-.85-1.68-2-2.53-3.48-2.12-3.7-1.42-5.24-3.39-7.9-1.81-2.46-4.22-3.61-6.1-4.53-1.76-.85-4-1.92-6.66-1.81-3.48.15-5.71,2.26-7.36,3.39-7.29,5.09-20.82,3.56-27.79-2.15l24.44-48.67c4.48,1.22,10.58,3.85,19.3,8.89,7.44,4.29,17.28,10.63,28.03,19.62Z"/>
  <path class="cls-4" d="m393.26,530.88c2.17,6.88,4.51,13.38,6.95,19.5-10.46,5.04-24.22,10.36-40.87,13.74-.12.02-.22.05-.34.07l-.02-.1c-4.75-21.3-9.5-42.63-14.24-63.95l25.06,2.34,11.79-24.08c.07.08.14.17.2.24,1.97,15.7,5.48,33.37,11.46,52.25Z"/>
  <path class="cls-7" d="m360.97,10.85c4.73,3.37,23.86,17.03,21.27,37.19-1.93,15.01-14.63,23.62-17.2,25.3-1.61-14.8-7.34-29.35-18.86-39.75-11.92-10.75-26.51-13.87-36.73-14.65,1.32-4.21,4.38-11.51,11.4-15.77,15.89-9.62,37.05,5.49,40.12,7.68Z"/>
  <path class="cls-3" d="m344.74,500.14l-34.54-3.24,17.55-34.98c6.97,5.71,20.5,7.24,27.79,2.15,1.64-1.14,3.88-3.24,7.36-3.39,2.66-.1,4.9.97,6.66,1.81,1.88.92,4.29,2.07,6.1,4.53,1.97,2.66,1.27,4.21,3.39,7.9.85,1.48,1.75,2.63,2.53,3.48l-11.79,24.08-25.06-2.34Z"/>
  <path class="cls-4" d="m375.18,347.43l-.12.02c-.73,8.21-1.48,16.43-2.22,24.64l-20.65,41.16c-5.04-1.39-8.04-1.03-10.43-.36.05-7.04-.59-12.68-1.24-16.65-.56-3.43-1.07-5.24-2.49-6.88-2.49-2.88-5.99-3.07-10.29-3.97-3.76-.78-8.9-2.26-14.92-5.31,6.66.24,14.72.05,23.06-1.24,4.24-.66,7.95-1.51,12.02-3.63,0,0,3.36-1.75,6.36-4.32,5.87-5.04,11.5-21.69,11.87-43.95.76.14,2.36.54,3.83,1.87,1.88,1.66,2.37,3.92,2.61,5.05.51,2.39,1.44,7.12,2.61,13.58Z"/>
  <path class="cls-7" d="m224.09,79.31c-.2,5.58-.41,11.23-.46,16.87h-.02c-2.36-3.95-5.82-11.11-5.82-20.25,0-7.87,2.85-13.46,6.77-22.67,3.29-7.7,7.21-15.26,12.9-21.38,7.85-8.46,18.81-13.75,30.17-15.77,11.38-2.02,23.66-.41,34.81,2.58,1.95-.02,4.32.03,7,.25,10.23.78,24.81,3.9,36.73,14.65,11.51,10.4,17.25,24.94,18.86,39.75,2.19,20.09-3.21,40.66-11.96,51.98-2.93,3.8-14.55,17.28-25.44,26.34-1.14.93-4.71,3.87-9.43,8.16-4.85,4.41-8.8,8.29-11.7,11.28.22-3.39.56-6.58.95-9.53,5.56-5.73,10.51-12.07,14.69-18.89,2.41-3.92,4.8-8.21,8.89-10.34,1.9-1,4.04-1.42,6.04-2.24,5.6-2.24,9.68-7.21,12.55-12.53,1.68-3.12,3.05-6.53,3.09-10.07.07-7.68-6.94-14.52-14.6-14.92-7.68-.42-15.08,5.09-17.59,12.36-1.87,3.82-3.75,7.63-5.61,11.43,2.92-19.38-.83-26.98-5.16-30.2-3.54-2.65-7.83-2.59-12.77-7.7-3.31-3.39-4.75-6.88-6.44-11.07-1.75-4.32-3.93-11.18-4.41-20.23-.61,3.49-2.17,9.33-6.66,14.62-6.55,7.7-15.53,9.78-19.25,10.58-14.6,3.17-23.11-3.26-32.22,3.22-1.87,1.34-3.15,2.76-3.92,3.75Z"/>
  <path class="cls-1" d="m338.11,92.56c7.66.41,14.67,7.24,14.6,14.92-.03,3.54-1.41,6.95-3.09,10.07-2.87,5.32-6.95,10.29-12.55,12.53-2,.81-4.14,1.24-6.04,2.24-4.09,2.14-6.48,6.43-8.89,10.34-4.17,6.82-9.12,13.16-14.69,18.89-7.83,8.09-16.92,14.99-26.84,20.32-4.7,2.53-9.97,4.75-15.18,4.85-1.83.05-3.66-.17-5.46-.73-6.17-1.9-10.48-7.33-14.28-12.53-4.14-5.66-8.19-11.43-11.38-17.69-9.33-18.18-10.92-38.92-10.7-59.59.05-5.65.25-11.29.46-16.87.76-.98,2.05-2.41,3.92-3.75,9.11-6.48,17.62-.05,32.22-3.22,3.71-.8,12.7-2.88,19.25-10.58,4.49-5.29,6.05-11.12,6.66-14.62.47,9.06,2.66,15.91,4.41,20.23,1.7,4.19,3.14,7.68,6.44,11.07,4.93,5.1,9.23,5.05,12.77,7.7,4.32,3.22,8.07,10.82,5.16,30.2,1.87-3.8,3.75-7.61,5.61-11.43,2.51-7.27,9.9-12.79,17.59-12.36Z"/>
  <path class="cls-1" d="m352.19,413.24l-24.44,48.67c-1.27-1.02-2.32-2.19-3.07-3.49-.64-1.14-.92-2.34-1.46-4.75-2.12-9.39.07-17.13,1.12-20.69,1.48-4.99,2.73-9.21,6.61-13.33.66-.71,4.8-5.07,10.8-6.77,2.39-.68,5.39-1.03,10.43.36Z"/>
  <path class="cls-4" d="m328.77,286.33c-1.73,1.31-3.87,2.68-6.68,4.63-4.6,3.17-11.16,8.04-18.72,14.92.7-2.14,1.29-3.92,1.76-5.29,5.65-16.6,13.33-42.14,22.96-82.8l.08-.49c2.75.42,5.7.86,8.8,1.29-.59,5.02-.49,10.11-.37,15.18.2,9.72.41,19.45.61,29.17.12,6.26.14,12.94-3.34,18.14-1.49,2.22-3.02,3.68-5.1,5.26Z"/>
  <path class="cls-4" d="m332.92,295.12c.88,2.2,1.12,3.48.98,4.87-.49,5.05-7.5,8.22-10.01,9.43-6.33,3.05-15.06,8.56-26.3,19.43,1.76-9.73,4.02-17.53,5.77-22.96,7.56-6.88,14.13-11.75,18.72-14.92,2.81-1.95,4.95-3.32,6.68-4.63,1.56,2.85,2.95,5.78,4.15,8.78Z"/>
  <path class="cls-8" d="m328.17,217.3l-.08.49c-9.63,40.66-17.31,66.2-22.96,82.8-.47,1.37-1.07,3.15-1.76,5.29-1.75,5.43-4,13.23-5.77,22.96-.47,2.58-.92,5.31-1.29,8.16-1.95,14.72-1.56,26.08-1.36,31.42,1.54,39.8,5.6,89.89,6.19,97.68,1.71,22.62,1.97,55.11-5.32,95.85-12.79.66-26.96.8-42.26,0-14.8-.78-28.42-2.31-40.73-4.19h-.12c.1-13.26.39-32.07,1.19-54.54,1.58-44.31,3.07-45.68,5.14-92.52,2.22-50.13,1.51-61.95,5.39-90.03.08-.75.2-1.49.31-2.26,1.32-9.28,2.71-17.25,3.99-23.93,1.2-6.29,2.31-11.45,3.17-15.47,3-13.91,7.12-33.78,12.41-61.29,3.09-.22,5.97-.51,8.63-.83-2.71,18.3-4.61,30.85-5.56,37.09-3,19.86-4.77,29.37,1.15,34.81,3.8,3.49,9.94,4.32,12.75,4.71,0,0,7.14.97,14.45-1.29,15.35-4.77,22.52-20.76,30.59-38.97,3.92-8.82,8.6-21.37,11.73-37.22l.08-.42c2.97.53,6.34,1.1,10.04,1.68Zm-41.83,161.22c.24-1-13.4-6.97-30.35-7.8-16.45-.8-30.32,3.51-30.18,4.49.1.85,10.45-.98,28.07-.2,20.33.88,32.25,4.44,32.47,3.51Z"/>
  <path class="cls-1" d="m309.74,214.06c2.26.42,5.09.97,8.39,1.56l-.08.42c-3.14,15.86-7.82,28.4-11.73,37.22-8.07,18.21-15.25,34.2-30.59,38.97-7.31,2.26-14.45,1.29-14.45,1.29-2.81-.39-8.95-1.22-12.75-4.71-5.92-5.44-4.15-14.96-1.15-34.81.95-6.24,2.85-18.79,5.56-37.09,5.26-.63,9.67-1.34,13.02-1.97.76-5.14,1.2-11.26.76-18.09,6.21-.02,12.16-2.53,17.75-5.27,8.5-4.15,17.09-9.28,21.79-17.48h.07c-.19,4.04-.24,8.34-.07,12.89.39,10.46,1.8,19.59,3.48,27.08Z"/>
  <path class="cls-6" d="m306.52,171.09c-.07.98-.14,1.98-.19,3h-.07c-4.7,8.21-13.29,13.33-21.79,17.48-5.6,2.75-11.55,5.26-17.75,5.27-.03-.61-.08-1.22-.14-1.83-.25-2.95-.66-5.71-1.14-8.29,5.21-.1,10.48-2.32,15.18-4.85,9.92-5.32,19.01-12.23,26.84-20.32-.39,2.95-.73,6.14-.95,9.53Z"/>
  <path class="cls-9" d="m255.99,370.71c16.96.83,30.59,6.8,30.35,7.8-.22.93-12.14-2.63-32.47-3.51-17.62-.78-27.96,1.05-28.07.2-.14-.98,13.74-5.29,30.18-4.49Z"/>
  <path class="cls-4" d="m239.35,218.08c1.7-.08,3.36-.2,4.95-.34-5.29,27.51-9.41,47.38-12.41,61.29-.86,4.02-1.97,9.17-3.17,15.47l-.1-.02c-.85-1.61-2.15-3.99-3.8-6.82-1.75-2.98-3.1-5.05-4.14-6.63-1.92-2.83-2.85-4.04-3.36-6-1.49-5.78.63-11.8,2.73-17.38,3.82-10.19,5.73-14.87,9.75-26.06,2.03-5.65,3.46-10.31,4.34-13.28,1.66-.05,3.39-.12,5.21-.22Z"/>
  <path class="cls-2" d="m196.99,448.21c-2.41,8.55-7.17,20.81-17.13,32.59-3.46,4.1-7,7.51-10.34,10.29-5.39.32-13.19-.07-21.27-3.78,0,0-6.21-2.87-11.65-8.02-9.82-9.29-30.47-60.42-51.89-132.53.34-.14.68-.27,1.03-.41,3.8-1.49,7.7-2.95,11.7-4.39,5.02-1.8,9.94-3.48,14.75-5.05,13.92,21.37,26.2,37.21,35.1,48.02,2.02,2.44,4.1,4.93,6.22,7.55,6.46,8.04,13.11,17.31,18.33,30.52,3.17,8.02,4.83,15.02,5.75,19.79l.34-.07c.22-2.56.39-6.12.19-10.36-.61-12.67-4.17-21.94-6.77-28.54-2.75-6.99-7.34-16.64-15.13-26.93,4.22-23.69,9.06-48.09,14.58-73.14,4.7-21.25,9.65-41.85,14.8-61.81,3.12-11.09,8.28-16.36,12.33-19.13,8.73-5.97,17.86-4,36.19-4.53-.88,2.97-2.31,7.63-4.34,13.28-4.02,11.19-5.94,15.87-9.75,26.06-2.1,5.58-4.22,11.6-2.73,17.38.51,1.97,1.44,3.17,3.36,6l-.15.1c-2.41,2.14-4.68,4.43-6.78,6.83-1.05,1.2-2.1,2.51-2.42,4.07-.34,1.68.2,3.39.86,4.97,3.43,8.21,10.23,14.96,12.14,23.66l.1.02c-3.88,28.08-3.17,39.9-5.39,90.03-2.07,46.84-3.56,48.21-5.14,92.52-.8,22.47-1.09,41.28-1.19,54.54-.02,1.48-.02,2.87-.03,4.19-4.02.86-12.57,2.12-22.64-.98-8.9-2.75-14.82-7.61-17.74-10.41,3.93-9.11,8.8-21.54,13.23-36.63,7.19-24.55,10.23-46.06,11.46-65.71Zm.03-6h.29c.63-13.41.51-26.01.42-38.17-.14-18.99.2-28.17-5.09-37.99-4.41-8.12-9.63-11.96-12.21-22.38-2.41-9.7-.71-17.91.34-22.72,3.65-16.79,12.02-21.1,18.65-39.68,3.02-8.46,4.21-15.75,4.75-20.35h.03c-.08-1.31-.29-2.56-.85-2.7-1.76-.42-4.77,11.04-10.89,24.93-9.02,20.47-15.36,24.78-17.55,40.85-.32,2.46-.73,5.6-.59,9.84.54,16.75,8.75,23.67,14.92,40.53,2.88,7.89,3.82,14.7,5.68,28.32,2.15,15.52,2.42,29,2.09,39.53Z"/>
  <path class="cls-4" d="m228.72,294.49c-1.27,6.68-2.66,14.65-3.99,23.93-.1.76-.22,1.51-.31,2.26l-.1-.02c-1.92-8.7-8.72-15.45-12.14-23.66-.66-1.58-1.2-3.29-.86-4.97.32-1.56,1.37-2.87,2.42-4.07,2.1-2.41,4.38-4.7,6.78-6.83l.15-.1c1.03,1.58,2.39,3.65,4.14,6.63,1.64,2.83,2.95,5.21,3.8,6.82l.1.02Z"/>
  <path class="cls-4" d="m204.21,260.91h-.03c-.54,4.6-1.73,11.89-4.75,20.35-6.63,18.59-15.01,22.89-18.65,39.68-1.05,4.82-2.75,13.02-.34,22.72,2.58,10.43,7.8,14.26,12.21,22.38,5.29,9.82,4.95,18.99,5.09,37.99.08,12.16.2,24.76-.42,38.17h-.29c.34-10.53.07-24.01-2.09-39.53-1.87-13.62-2.8-20.43-5.68-28.32-6.17-16.86-14.38-23.77-14.92-40.53-.14-4.24.27-7.38.59-9.84,2.19-16.08,8.53-20.38,17.55-40.85,6.12-13.89,9.12-25.35,10.89-24.93.56.14.76,1.39.85,2.7Z"/>
  <path class="cls-4" d="m178.13,432.37c.2,4.24.03,7.8-.19,10.36l-.34.07c-.92-4.77-2.58-11.77-5.75-19.79-5.22-13.21-11.87-22.49-18.33-30.52.88-5.16,1.78-10.36,2.71-15.58,7.78,10.29,12.38,19.94,15.13,26.93,2.59,6.6,6.16,15.87,6.77,28.54Z"/>
  <path class="cls-1" d="m106.5,321.28c1.22,3.54,3.15,8.95,5.7,15.64-4.82,1.58-9.73,3.26-14.75,5.05-4,1.44-7.9,2.9-11.7,4.39-.76-4.24-2.54-10.11-7.38-14.35-4.6-4.02-9.94-4.49-11.99-5.12-15.04-4.66-28.39-14.04-39.04-25.64-10.63-11.62-18.69-25.42-24.96-39.87-1.25-2.87-2.44-5.85-2.37-8.97,0,0,.03-1.64.07-3.65.53-1.87,1.31-3.65,2.29-5.31,3.07-.39,6.16.88,8.61,2.75,2.46,1.88,4.41,4.31,6.43,6.65,13.67,15.7,31.71,27.66,52.01,32.3-8.31-6.99-12.4-18.65-10.29-29.3,3.24,4.32,6.72,8.48,10.38,12.45,15.53,16.79,20.04,17.5,26.81,28.42,4.63,7.5,6.12,12.87,10.19,24.55Z"/>
</svg>