<?xml version="1.0" encoding="UTF-8"?>
<svg id="Layer_21" data-name="Layer 21" xmlns="http://www.w3.org/2000/svg" viewBox="0 0 467.14 595.28">
  <defs>
    <style>
      .cls-1 {
        fill: #fff;
      }

      .cls-2 {
        fill: #d3a159;
      }

      .cls-3 {
        fill: #563304;
      }
    </style>
  </defs>
  <rect class="cls-3" y="0" width="467.14" height="595.28" rx="41.66" ry="41.66"/>
  <path class="cls-2" d="m84.53,43.77h298.08c16.42,0,29.75,13.33,29.75,29.75v366.96H54.78V73.53c0-16.42,13.33-29.75,29.75-29.75Z"/>
  <circle class="cls-1" cx="233.59" cy="170.94" r="81.35"/>
  <path class="cls-1" d="m412.85,454.34c0,1.35,0,2.69-.1,4.03-47.06,43.54-110.03,70.01-179.12,70.01s-132.17-26.48-179.22-70.01c-.1-1.34-.1-2.69-.1-4.03,0-99.07,80.25-179.32,179.32-179.32s179.22,80.25,179.22,179.32Z"/>
</svg>