<?xml version="1.0" encoding="UTF-8"?>
<svg id="Layer_13" data-name="Layer 13" xmlns="http://www.w3.org/2000/svg" viewBox="0 0 595.28 595.28">
  <defs>
    <style>
      .cls-1 {
        fill: #e2c698;
      }

      .cls-2 {
        fill: #563304;
      }
    </style>
  </defs>
  <path class="cls-1" d="m595.3,297.58c0,86.59-37.01,164.56-96.01,218.91-52.95,48.99-123.83,78.79-201.57,78.79s-148.73-29.79-201.69-78.79C37.03,462.14.02,384.17.02,297.58.02,133.26,133.27,0,297.72,0s297.58,133.26,297.58,297.58Z"/>
  <circle class="cls-2" cx="297.68" cy="193.03" r="91.55"/>
  <path class="cls-2" d="m499.4,511.95c0,1.52,0,3.03-.12,4.54-52.95,48.99-123.83,78.79-201.57,78.79s-148.73-29.79-201.69-78.79c-.11-1.51-.11-3.02-.11-4.54,0-111.49,90.31-201.8,201.8-201.8s201.69,90.31,201.69,201.8Z"/>
</svg>