<?xml version="1.0" encoding="UTF-8"?>
<svg id="Layer_2" data-name="Layer 2" xmlns="http://www.w3.org/2000/svg" viewBox="0 0 595.28 595.28">
  <defs>
    <style>
      .cls-1 {
        fill: #d3a159;
      }

      .cls-2 {
        fill: #563304;
      }
    </style>
  </defs>
  <circle class="cls-1" cx="297.64" cy="297.64" r="297.64"/>
  <g>
    <path class="cls-2" d="m456.7,478.4c-.03,3.98-3.45,7.24-7.5,7.07H145.93c-4.02.11-7.38-3.18-7.36-7.17.02-3.96,3.36-7.2,7.36-7.09h303.27c4.1-.17,7.53,3.17,7.5,7.19Z"/>
    <path class="cls-2" d="m438.72,448.62c.3,3.72-2.54,7.24-6.54,7.73H163.44c-4.07-.29-7.1-3.82-6.84-7.63.24-3.47,3.15-6.39,6.84-6.63h268.74c3.54.4,6.26,3.21,6.54,6.53Z"/>
    <path class="cls-2" d="m453.82,176.35c-4.89,6.17-11.4,10.54-19.36,13.09-.66.21-1.38.31-2.2.31-1.96,0-3.75-.79-5.06-2.1-1.31-1.27-2.1-3.07-2.1-5.03,0-3.13,2-5.89,4.96-6.85,9.16-2.93,14.98-8.96,17.29-18.01,1.62-5.99,1.14-12.36-1.27-17.94-6.44-14.81-21.59-15.74-26.11-15.67l-244.67.14c-4.58-.04-19.7.89-26.11,15.74-2.41,5.58-2.86,11.95-1.27,17.94,2.38,9.02,8.2,15.09,17.32,17.98,3,.96,4.99,3.72,4.99,6.82,0,3.96-3.24,7.16-7.2,7.16-.79,0-1.52-.1-2.2-.34-7.92-2.48-14.43-6.89-19.36-13.02-12.19-15.22-11.54-38.57,1.48-53.18,11.57-12.85,27.76-13.54,32.48-13.4l244.36-.17c4.65-.1,20.91.55,32.48,13.4,13.05,14.53,13.74,37.89,1.55,53.14Z"/>
    <path class="cls-2" d="m322.72,180.72v246.5h-.07v-247.81c0-.55,0-1.14.03-1.69.07.96.07,1.96.03,3Z"/>
    <path class="cls-2" d="m272.3,342.56c0,.1,0,.21-.04.31v-.62c.04.1.04.21.04.31Z"/>
    <path class="cls-2" d="m334.77,177.9c.03,1.03.03,2.07,0,3.1v246.26h-12.05v-.03h11.99v-247.81c0-.52,0-1.03.07-1.52Z"/>
    <path class="cls-2" d="m387.83,152.76c-7.2-7.66-16.95-12-27.37-12.15-10.47-.15-20.17,3.83-27.57,11.18-1.53,1.48-2.91,3.11-4.19,4.85-.92-1.33-1.99-2.55-3.22-3.88-7.2-7.66-16.95-12-27.37-12.15-10.36-.15-20.17,3.83-27.57,11.23-1.48,1.43-2.86,3.01-4.03,4.59-.97-1.33-2.04-2.66-3.11-3.83-.1-.15-.26-.36-.41-.51-7.25-7.61-17-11.95-27.42-12.1h-2.3c-1.23.1-2.45.2-3.62.41-.66.05-1.33.15-1.89.31-.56.1-1.17.26-1.84.41-3.11.77-6.08,1.89-8.68,3.32-.56.26-1.07.56-1.58.87-1.07.66-2.2,1.38-3.27,2.14-.41.31-.77.61-1.17.92-1.17.92-2.2,1.84-3.22,2.81-1.99,1.99-3.57,3.93-4.95,5.97-.61.97-1.28,2.04-1.89,3.11l-.15.36c-.25.51-.51.97-.77,1.48-.51,1.07-.97,2.14-1.33,3.22-.31.61-.46,1.28-.66,1.94l-.51,1.79c-.15.61-.31,1.23-.46,1.99-.41,1.94-.61,3.88-.71,5.67-.05.71-.05,1.43-.05,2.09v132.34c0,10.77,4.54,21.09,12.46,28.39,7.2,6.69,16.54,10.31,26.35,10.31h23.59v78.68h14.71v-249.11c0-6.48,2.55-12.61,7.2-17.21,4.6-4.54,10.42-6.99,16.8-6.99h.31c6.43.1,12.46,2.81,16.95,7.56,3.93,4.19,6.18,9.39,6.54,15.06.05.92.05,1.84.05,2.91v247.78h14.5v-249.11c0-.46,0-.92.1-1.43.26-5.92,2.81-11.54,7.1-15.78,4.65-4.65,10.57-7.1,17.1-6.99,6.43.1,12.46,2.81,16.95,7.61,4.54,4.75,6.84,10.93,6.59,17.51v248.19h14.6v-247.83c.46-10.31-3.27-20.22-10.57-27.93Zm-128.92,182.48h-23.59c-13.38,0-24.2-10.82-24.2-24.1v-132.39c0-.82.05-1.68.15-2.55.1-1.48.41-3.01.92-4.6.41-1.48,1.02-2.91,1.84-4.39.72-1.28,1.53-2.55,2.66-3.88.51-.61,1.02-1.23,1.58-1.79.56-.51,1.07-.97,1.69-1.48.56-.51,1.17-.92,1.89-1.38.36-.31.77-.51,1.17-.82,1.28-.71,2.55-1.33,3.83-1.79,1.28-.51,2.6-.87,4.14-1.12.61-.1,1.17-.2,1.74-.26.87-.1,1.79-.1,2.65-.1,6.43.1,12.46,2.76,16.95,7.56,4.54,4.8,6.89,11.03,6.59,17.56v155.52Z"/>
    <path class="cls-2" d="m211.18,357.14v71.38h-14.65v-86.54l2.35,3.83c1.53,2.45,3.37,4.7,5.51,6.64,1.84,1.68,3.88,3.17,6.08,4.34l.71.36Z"/>
  </g>
</svg>