<?xml version="1.0" encoding="UTF-8"?>
<svg id="Layer_1" data-name="Layer 1" xmlns="http://www.w3.org/2000/svg" viewBox="0 0 595.28 595.28">
  <defs>
    <style>
      .cls-1 {
        fill: #d3a159;
      }

      .cls-2 {
        fill: #563304;
      }
    </style>
  </defs>
  <rect class="cls-1" x="0" width="595.28" height="595.28" rx="108.64" ry="108.64"/>
  <g>
    <path class="cls-2" d="m490.53,516.84c-.04,4.83-4.18,8.78-9.09,8.57H113.67c-4.88.13-8.95-3.86-8.92-8.69.03-4.8,4.08-8.73,8.92-8.6h367.76c4.97-.21,9.14,3.84,9.09,8.72Z"/>
    <path class="cls-2" d="m468.72,480.73c.37,4.51-3.09,8.78-7.92,9.37H134.91c-4.94-.35-8.61-4.63-8.29-9.25.29-4.21,3.82-7.75,8.29-8.05h325.89c4.29.49,7.6,3.9,7.92,7.92Z"/>
    <path class="cls-2" d="m487.03,150.55c-5.93,7.48-13.82,12.78-23.47,15.87-.79.25-1.67.38-2.67.38-2.38,0-4.55-.96-6.14-2.55-1.59-1.55-2.55-3.72-2.55-6.1,0-3.8,2.42-7.14,6.01-8.31,11.11-3.55,18.17-10.86,20.97-21.84,1.96-7.27,1.38-14.99-1.54-21.76-7.81-17.96-26.19-19.09-31.66-19l-296.7.17c-5.56-.04-23.89,1.08-31.66,19.09-2.92,6.77-3.47,14.49-1.54,21.76,2.88,10.94,9.94,18.29,21.01,21.8,3.63,1.17,6.06,4.51,6.06,8.27,0,4.8-3.93,8.69-8.73,8.69-.96,0-1.84-.13-2.67-.42-9.61-3.01-17.5-8.35-23.47-15.79-14.79-18.46-13.99-46.78,1.8-64.49,14.03-15.58,33.66-16.41,39.38-16.25l296.32-.21c5.64-.12,25.35.67,39.39,16.25,15.83,17.62,16.66,45.94,1.88,64.44Z"/>
    <path class="cls-2" d="m328.05,155.86v298.92h-.08V154.27c0-.67,0-1.38.04-2.05.08,1.17.08,2.38.04,3.63Z"/>
    <path class="cls-2" d="m266.91,352.11c0,.13,0,.25-.04.38v-.75c.04.13.04.25.04.38Z"/>
    <path class="cls-2" d="m342.67,152.43c.04,1.25.04,2.51,0,3.76v298.62h-14.62v-.04h14.53V154.27c0-.63,0-1.25.08-1.84Z"/>
    <path class="cls-2" d="m407.01,121.95c-8.73-9.29-20.55-14.55-33.19-14.74-12.69-.19-24.46,4.64-33.43,13.56-1.86,1.8-3.53,3.78-5.08,5.88-1.11-1.61-2.41-3.1-3.9-4.71-8.73-9.29-20.56-14.55-33.19-14.74-12.57-.19-24.46,4.64-33.43,13.62-1.8,1.73-3.47,3.65-4.89,5.57-1.18-1.61-2.48-3.22-3.78-4.64-.12-.19-.31-.43-.5-.62-8.79-9.23-20.62-14.49-33.25-14.67h-2.79c-1.49.12-2.97.25-4.4.5-.8.06-1.61.19-2.29.37-.68.12-1.42.31-2.23.5-3.78.93-7.37,2.29-10.53,4.02-.68.31-1.3.68-1.92,1.05-1.3.8-2.66,1.67-3.96,2.6-.5.37-.93.74-1.42,1.11-1.42,1.11-2.66,2.23-3.9,3.41-2.41,2.41-4.33,4.77-6.01,7.24-.74,1.18-1.55,2.48-2.29,3.78l-.19.43c-.31.62-.62,1.18-.93,1.8-.62,1.3-1.18,2.6-1.61,3.9-.37.74-.56,1.55-.8,2.35l-.62,2.17c-.19.74-.37,1.49-.56,2.41-.5,2.35-.74,4.71-.87,6.87-.06.87-.06,1.73-.06,2.54v160.48c0,13.06,5.51,25.57,15.11,34.42,8.73,8.11,20.06,12.51,31.95,12.51h28.6v95.41h17.83V154.27c0-7.86,3.1-15.29,8.73-20.87,5.57-5.51,12.63-8.48,20.37-8.48h.37c7.8.12,15.11,3.41,20.56,9.16,4.77,5.08,7.49,11.39,7.93,18.26.06,1.11.06,2.23.06,3.53v300.47h17.58V154.27c0-.56,0-1.11.12-1.73.31-7.18,3.41-13.99,8.61-19.13,5.64-5.63,12.82-8.61,20.74-8.48,7.8.12,15.11,3.41,20.55,9.23,5.51,5.76,8.3,13.25,7.99,21.24v300.97h17.71V155.82c.56-12.51-3.96-24.52-12.82-33.87Zm-156.33,221.28h-28.6c-16.22,0-29.35-13.13-29.35-29.22v-160.54c0-.99.06-2.04.19-3.1.12-1.8.5-3.65,1.11-5.57.5-1.8,1.24-3.53,2.23-5.32.87-1.55,1.86-3.1,3.22-4.71.62-.74,1.24-1.49,1.92-2.17.68-.62,1.3-1.18,2.04-1.8.68-.62,1.42-1.11,2.29-1.67.43-.37.93-.62,1.42-.99,1.55-.87,3.1-1.61,4.64-2.17,1.55-.62,3.16-1.05,5.02-1.36.74-.12,1.42-.25,2.11-.31,1.05-.12,2.17-.12,3.22-.12,7.8.12,15.11,3.34,20.56,9.16,5.51,5.82,8.36,13.37,7.99,21.3v188.59Z"/>
    <path class="cls-2" d="m192.79,369.8v86.56h-17.77v-104.94l2.85,4.64c1.86,2.97,4.09,5.7,6.69,8.05,2.23,2.04,4.71,3.84,7.37,5.26l.87.43Z"/>
  </g>
</svg>