<?xml version="1.0" encoding="UTF-8"?>
<svg id="Layer_15" data-name="Layer 15" xmlns="http://www.w3.org/2000/svg" viewBox="0 0 595.28 343.62">
  <defs>
    <style>
      .cls-1 {
        fill: #e2c698;
      }
    </style>
  </defs>
  <path class="cls-1" d="m569.9,50.79H25.41C11.39,50.79.02,39.42.02,25.39S11.39,0,25.41,0h544.49c14.03,0,25.39,11.37,25.39,25.39s-11.37,25.39-25.39,25.39Z"/>
  <path class="cls-1" d="m569.9,186.21H25.41C11.39,186.21.02,174.84.02,160.82s11.37-25.39,25.39-25.39h544.49c14.03,0,25.39,11.37,25.39,25.39s-11.37,25.39-25.39,25.39Z"/>
  <path class="cls-1" d="m569.9,343.62H25.41C11.39,343.62.02,332.26.02,318.23s11.37-25.39,25.39-25.39h544.49c14.03,0,25.39,11.37,25.39,25.39s-11.37,25.39-25.39,25.39Z"/>
</svg>