<?xml version="1.0" encoding="UTF-8"?>
<svg id="Layer_8" data-name="Layer 8" xmlns="http://www.w3.org/2000/svg" viewBox="0 0 398.99 595.28">
  <defs>
    <style>
      .cls-1 {
        fill: #e2c698;
      }

      .cls-2 {
        fill: #914100;
      }

      .cls-3 {
        fill: #723100;
      }

      .cls-4 {
        fill: #d3a159;
      }

      .cls-5 {
        fill: #d6a87f;
      }

      .cls-6 {
        fill: #f7e6cb;
      }

      .cls-7 {
        fill: #0c0700;
      }

      .cls-8 {
        fill: #563304;
      }
    </style>
  </defs>
  <rect class="cls-6" x="289.47" y="457.83" width="109.52" height="54.99" rx="8.89" ry="8.89"/>
  <rect class="cls-6" x="244.66" y="530.17" width="109.52" height="54.99" rx="8.89" ry="8.89"/>
  <rect class="cls-6" x="0" y="45.63" width="109.52" height="54.99" rx="8.89" ry="8.89"/>
  <rect class="cls-4" x="8.54" y="127.63" width="390.45" height="303.59" rx="44.28" ry="44.28"/>
  <g>
    <path class="cls-7" d="m163.46,91.33c.31,16.77,2.46,33.32,10.03,48.08,3.01,5.87,6.81,11.31,10.7,16.63,3.58,4.89,7.64,10.01,13.43,11.8,1.24.37,2.49.59,3.75.66.42,2.05.79,4.1,1.08,6.17,1.06,7.26,1.27,14.64.68,21.97-2,1.93-3.97,3.55-5.85,4.95-4.3,3.17-8.18,5.05-11.14,6.23-12.71,5.09-29.86,5.64-37.62,5.98-6.01.24-12.6.61-17.01,4.7-2.97,2.74-4.15,5.99-4.73,7.64-7.08,20.52-10.62,30.78-13.81,43.18-9.9-25.46-7.17-41.2-2.36-51.08,8.95-18.35,25.59-20.14,30.21-38.82,3.27-13.19-5.46-17.84-.7-33.57,3.35-11.1,8.31-10.86,12.08-22.23,2.74-8.29,1.3-12.02-.19-34.96-1.4-21.62-2.06-32.61.49-40.76,4.53-14.51,14.32-23.54,17.51-26.27,23.9-20.46,56.57-12.26,60.15-11.29l.08.63c12.83-1.66,26.48,1.11,37.17,8.24,15.87,10.57,25.77,28.89,28.01,47.83,1.65,13.91-1.79,32.8-2.95,39.61-2.33,13.82-4.73,19.63-1.4,27.44,3.21,7.56,7.95,8.02,15.71,19.06,2.88,4.11,7.66,10.9,9.76,19.07,4.62,18.02-8.26,25.25-4.87,40.94,2.79,12.97,12.22,11.05,21.12,27.82,1.84,3.48,15.2,29.56,2.32,48.94-7.26,10.93-19.5,14.69-25.8,16.06-5.2-35.87-8.54-61.37-8.81-71.08-.05-1.8-.17-6.84-3.48-11.06-2.7-3.45-7.16-4.92-11.35-6.22-5.87-1.82-11.73-3.64-17.6-5.46-7.37-2.29-11.09-3.59-14.62-6.01-1.78-1.22-3.32-2.54-4.61-3.82-2.07-2.03-3.57-4.06-4.62-5.65-2.33-10.41-2.5-21.17-2.65-31.84-.04-2.7-.09-5.4-.13-8.1-.05-3.63-.1-7.25-.17-10.88,5.64-5.65,10.62-11.96,14.8-18.76,2.27-3.68,4.51-7.73,8.36-9.74,1.79-.93,3.8-1.34,5.68-2.1,5.27-2.11,9.11-6.79,11.8-11.78,1.6-2.94,2.88-6.14,2.91-9.48.06-7.24-6.53-13.66-13.74-14.05-7.22-.39-14.18,4.79-16.52,11.63-2.76.73-6.75,1.51-11.56,1.49-3.35-.01-22.69-.49-34.86-16.15-7.68-9.88-8.53-20.7-8.62-25.16-.35,3.77-1.93,15.33-11.28,25.68-9.52,10.53-21.09,13.23-24.8,13.92Z"/>
    <path class="cls-2" d="m159.17,270.71l-.27-.1c.62-3.4.84-6.86.66-10.3-.52-.27-1.08.26-1.4.75-5.76,8.33-9,18.17-13.15,27.42-2.5,5.55-5.33,10.88-9.22,15.54-.88,1.04-1.82,2.06-3.01,2.69-1.06.57-2.25.79-3.44.98-5.01.8-10.12,1.03-15.18.7l-.09.15c-5.24-3.23-8.89-6.85-11.11-9.36,5.19-12.45,8.24-22.83,10.05-29.88,3.18-12.4,6.72-22.67,13.81-43.18.58-1.65,1.75-4.89,4.73-7.64,4.42-4.1,11-4.46,17.01-4.7,7.75-.33,24.91-.89,37.62-5.98,2.96-1.18,6.84-3.07,11.14-6.23l.26.33c-4.35,12.36-.7,25.1,8.04,31.08,9.97,6.83,22.09,1.84,24.47.77,11.24-5,18.45-17.28,18.8-31.42l.03-.03c1.29,1.29,2.83,2.6,4.61,3.82,3.53,2.42,7.25,3.72,14.62,6.01,5.87,1.82,11.73,3.64,17.6,5.46,4.19,1.3,8.64,2.77,11.35,6.22,3.31,4.22,3.43,9.26,3.48,11.06.27,9.71,3.61,35.21,8.81,71.08.27,1.83.54,3.7.81,5.58-1.58.93-3.53,2-5.82,3.05-4.61,2.12-10.64,4.22-17.88,5.19-9.25,1.24-17.28.19-23.31-1.29-3.37-.82-6.13-1.8-8.11-2.58.35-12.6.67-25.2,1.02-37.8-2.73,12.81-5.07,25.71-6.99,38.67-.24,1.62-.48,3.28-.1,4.88.39,1.64,1.39,3.05,2.29,4.47,7.22,11.26,9.71,24.82,12.04,37.98,1.04,5.9,2.09,11.94,1.06,17.84-1.03,5.89-4.57,11.72-10.19,13.79l.17.48c-5.72,1.78-11.46,3.21-17.22,4.3-9.22,1.75-18.47,2.63-27.75,2.63-.09,0-28.04,1.97-42.99-8.82-2.31-1.66-3.3-3.88-3.3-3.88-.22-.48-.37-.94-.49-1.42-.63-2.45-.08-4.69.1-5.56.71-3.35.88-8.9-1.79-18.45-3.28-11.28-8.29-21.98-11.85-33.17-.39-1.21-.76-2.43-1.11-3.66-1.16-4.08-2.07-8.31-2.59-12.56-1.06-8.78-.42-17.68,3.18-25.67,3.03-6.7,8-12.41,10.64-19.25Zm69.32,68.82c-6.26-5.78-14.68-8.96-23.18-9.66-7.38-.61-14.19.85-21.29,2.6-1.67.42-4.93.05-5.16,2.29-.37,3.75,4.86,2.68,6.72,1.94,2.51-.99,5.04-1.97,7.66-2.61,5.86-1.43,12.04-1.11,17.97.1,5.91,1.2,11.62,3.27,17.28,5.33Z"/>
    <path class="cls-8" d="m306.26,431.02c-4.13,0-8.26.01-12.39.01,4.7-15.04,6.95-23.44,8.26-31.46h.01c1,6.08,1.92,12.36,2.73,18.87.53,4.26.99,8.46,1.39,12.58Z"/>
    <path class="cls-5" d="m304.34,314.58l-.04,4.75h-.05c-7.15,4.55-16.03,5.25-24.51,5.28-5.28.03-10.57-.17-15.84-.58-.24-1.85-.5-3.7-.75-5.55,6.03,1.48,14.06,2.52,23.31,1.29,7.24-.97,13.26-3.07,17.88-5.19Z"/>
    <path class="cls-1" d="m304.3,319.34c-.15,17.62-.3,35.24-.45,52.85.17,5.22.12,12.66-.9,21.51-.23,2-.5,3.93-.82,5.87-1.3,8.02-3.55,16.42-8.26,31.46-9.97.01-19.94.03-29.92.03.03-.53.04-1.06.06-1.56.54-13.39-1.12-20.19.3-34,.1-.97.21-1.91.32-2.83,1.29-10.16,3.58-18.26,5.32-23.53-2.02-15.03-4.03-30.07-6.05-45.1,5.27.41,10.56.61,15.84.58,8.47-.03,17.36-.73,24.51-5.28h.05Z"/>
    <path class="cls-1" d="m293.87,431.03c-.12.37-.24.75-.36,1.13-3.44,10.91-7.87,24.43-13.39,39.92-3.94,17.21-9.84,29.12-14.13,36.36-2.52,4.28-5,7.62-9.01,10.56-8.19,6-18.09,5.59-23.13,4.93.35-2.55,1.08-6.45,2.91-10.86,3.3-7.92,7.26-10.61,11.2-17.9,1.8-3.31,4.02-8.37,5.23-15.4-1.29,1.49-3.82,3.27-6.98,5.45-2.15,1.48-4.71,2.91-7.25,2.28,2.23-3.35,4.77-6.85,7.65-10.44,4.01-5,8-9.32,11.78-13.05,3.89-13.66,5.15-24.97,5.56-32.96,9.98,0,19.95-.01,29.92-.03Z"/>
    <path class="cls-1" d="m201.38,168.48c-1.26-.06-2.51-.28-3.75-.66-5.8-1.79-9.85-6.9-13.43-11.8-3.89-5.32-7.69-10.75-10.7-16.63-7.57-14.76-9.72-31.31-10.03-48.08,3.71-.7,15.29-3.39,24.8-13.92,9.35-10.35,10.93-21.91,11.28-25.68.09,4.47.94,15.29,8.62,25.16,12.17,15.66,31.51,16.14,34.86,16.15,4.82.01,8.81-.76,11.56-1.49,2.34-6.84,9.3-12.02,16.52-11.63,7.21.39,13.81,6.81,13.74,14.05-.03,3.34-1.31,6.54-2.91,9.48-2.69,5-6.53,9.67-11.8,11.78-1.88.76-3.89,1.17-5.68,2.1-3.85,2.01-6.09,6.05-8.36,9.74-4.17,6.8-9.16,13.11-14.8,18.76-7.15,7.19-15.34,13.33-24.26,18.12-4.84,2.6-10.33,4.84-15.67,4.53Z"/>
    <path class="cls-3" d="m263.9,324.04c2.02,15.03,4.03,30.07,6.05,45.1-1.74,5.27-4.03,13.37-5.32,23.53-3.43,1.31-6.86,2.5-10.3,3.55l-.17-.48c5.61-2.07,9.16-7.91,10.19-13.79,1.03-5.9-.01-11.94-1.06-17.84-2.33-13.16-4.82-26.72-12.04-37.98-.9-1.42-1.91-2.83-2.29-4.47-.37-1.6-.14-3.26.1-4.88,1.92-12.97,4.26-25.86,6.99-38.67-.35,12.6-.67,25.2-1.02,37.8,1.98.77,4.74,1.75,8.11,2.58.24,1.85.5,3.7.75,5.55Z"/>
    <path class="cls-8" d="m264.64,392.67c-.12.93-.22,1.87-.32,2.83-1.42,13.81.24,20.61-.3,34-.03.5-.04,1.03-.06,1.56-39.68.05-79.37.09-119.06.13,1.52-6.34,3.76-13.68,7.07-21.61,3.37-8.09,7.12-14.94,10.62-20.54.12.48.27.94.49,1.42,0,0,.99,2.22,3.3,3.88,14.95,10.79,42.9,8.82,42.99,8.82,9.29,0,18.53-.88,27.75-2.63,5.76-1.09,11.5-2.52,17.22-4.3,3.44-1.06,6.88-2.24,10.3-3.55Z"/>
    <path class="cls-1" d="m248.89,202.3l-.03.03c-.35,14.14-7.56,26.43-18.8,31.42-2.38,1.07-14.5,6.05-24.47-.77-8.73-5.98-12.39-18.71-8.04-31.08l-.26-.33c1.88-1.39,3.85-3.01,5.85-4.95.59-7.33.37-14.71-.68-21.97,4.33.32,8.72.63,12.92-.4,1.88-.46,3.68-1.2,5.47-1.93,4.17-1.73,8.33-3.55,12.04-6.12,3.55-2.45,6.71-5.63,8.59-9.49.04,2.7.09,5.4.13,8.1.15,10.66.32,21.43,2.65,31.84,1.06,1.6,2.55,3.62,4.62,5.65Z"/>
    <path class="cls-5" d="m241.31,145.83c.06,3.63.12,7.25.17,10.88-1.88,3.86-5.04,7.04-8.59,9.49-3.71,2.56-7.87,4.39-12.04,6.12-1.79.73-3.59,1.47-5.47,1.93-4.2,1.03-8.59.72-12.92.4-.3-2.07-.66-4.12-1.08-6.17,5.34.31,10.83-1.93,15.67-4.53,8.92-4.79,17.12-10.93,24.26-18.12Z"/>
    <path class="cls-3" d="m205.32,329.87c8.5.7,16.92,3.88,23.18,9.66-5.67-2.06-11.37-4.13-17.28-5.33-5.92-1.21-12.11-1.53-17.97-.1-2.63.64-5.15,1.62-7.66,2.61-1.87.73-7.1,1.8-6.72-1.94.23-2.24,3.49-1.87,5.16-2.29,7.1-1.75,13.91-3.21,21.29-2.6Z"/>
    <path class="cls-3" d="m159.56,260.3c.18,3.44-.04,6.9-.66,10.3l.27.1c-2.64,6.84-7.61,12.56-10.64,19.25l-3.53-1.49c4.15-9.25,7.39-19.09,13.15-27.42.32-.49.89-1.02,1.4-.75Z"/>
    <path class="cls-5" d="m147.94,328.18c.35,1.22.72,2.45,1.11,3.66-.4,1.26-.79,2.47-1.16,3.64-.85-2.58-2.92-4.53-5.07-6.19-7.34-5.68-16.18-9.04-24.97-12.02-1.7-.58-3.45-1.17-4.82-2.34h-.05c.58-2.01,1.16-4.01,1.73-6,1.53.91,3.19,1.79,4.98,2.6,11.02,4.97,21,4.58,25.67,4.1.52,4.25,1.43,8.47,2.59,12.56Z"/>
    <path class="cls-3" d="m145.01,288.47l3.53,1.49c-3.61,7.98-4.24,16.88-3.18,25.67-4.66.49-14.64.88-25.67-4.1-1.79-.81-3.45-1.69-4.98-2.6-.22-.13-.44-.26-.64-.4l.09-.15c5.06.33,10.17.1,15.18-.7,1.18-.19,2.38-.41,3.44-.98,1.2-.63,2.14-1.65,3.01-2.69,3.89-4.66,6.72-9.99,9.22-15.54Z"/>
    <path class="cls-1" d="m121.4,364.81c-.01-5.87-.48-11.76-1.38-17.57-.41-2.73-.94-5.47-1.96-8.05-1.85-4.66-5.22-8.55-8.51-12.32,1.15-3.98,2.29-7.97,3.43-11.95h.05c1.37,1.18,3.12,1.78,4.82,2.36,8.8,2.97,17.63,6.34,24.97,12.02,2.15,1.66,4.22,3.62,5.07,6.19-1.6,5.07-2.88,9.22-3.8,12.17-2.87,9.29-3.95,12.47-5.74,18.12-2.33,7.33-3.8,10.9-4.71,12.65-2.41,4.65-8.05,12.27-22.83,17.68-18.71-9-27.98-21.08-32.16-27.56-8.92-13.92-10.92-28.02-13.17-43.88-1.65-11.64-2.24-24.28-2.83-36.83-.5-10.71-1.02-27.66-9-35.51-3.05-2.99-6.98-5.91-6.98-5.91-3.49-2.2-6.98-4.39-10.46-6.58-4.95-3.12-9.95-6.28-13.73-10.74-6.3-7.48-8.35-17.82-7.62-27.57.71-9.75,3.93-19.12,7.11-28.37,1.66.81,4.19,2.25,6.59,4.7,7.93,8.04,5.68,17.66,10.48,27.65,2.22,4.6,6.59,10.7,16.3,16.06-.62-3.44-1.12-7.33-1.37-11.59-.3-5.16-.15-9.85.19-13.91,3.1,3.03,7.57,8.01,11.14,15.11,5.49,10.91,5.86,20.82,6.08,24.24,1.73,27.07,18.6,58.33,36.68,92.02.23.42.52.95.86,1.61,1.98,3.76,5.73,11.27,8.89,21.37,1.91,6.08,3,11.2,3.59,14.41Z"/>
    <path class="cls-5" d="m121.4,364.81c-.59-3.21-1.69-8.33-3.59-14.41-3.16-10.1-6.9-17.6-8.89-21.37.22-.72.42-1.44.63-2.16,3.3,3.77,6.66,7.66,8.51,12.32,1.02,2.58,1.55,5.32,1.96,8.05.9,5.81,1.37,11.69,1.38,17.57Z"/>
  </g>
</svg>