<?xml version="1.0" encoding="UTF-8"?>
<svg id="Layer_7" data-name="Layer 7" xmlns="http://www.w3.org/2000/svg" viewBox="0 0 595.28 595.28">
  <defs>
    <style>
      .cls-1 {
        fill: #e2c698;
      }

      .cls-2 {
        fill: #914100;
      }

      .cls-3 {
        fill: #723100;
      }

      .cls-4 {
        fill: #d3a159;
      }

      .cls-5 {
        fill: #d6a87f;
      }

      .cls-6 {
        fill: #f7e6cb;
      }

      .cls-7 {
        fill: #0c0700;
      }

      .cls-8 {
        fill: #563304;
      }
    </style>
  </defs>
  <rect class="cls-6" x="416.99" y="508.47" width="162.02" height="81.34" rx="13.16" ry="13.16"/>
  <rect class="cls-6" x="10.77" y="75.86" width="162.02" height="81.34" rx="13.16" ry="13.16"/>
  <rect class="cls-4" x="79.74" y="184.28" width="382.13" height="297.12" rx="43.33" ry="43.33"/>
  <g>
    <path class="cls-7" d="m294.59,11.3c14.35-1.86,29.62,1.24,41.58,9.22,17.75,11.83,28.83,32.31,31.33,53.49,1.83,15.57-2.02,36.71-3.3,44.33-2.61,15.46-5.29,21.95-1.57,30.7,3.59,8.46,8.89,8.98,17.58,21.32,3.23,4.6,8.57,12.19,10.92,21.34,5.17,20.15-9.23,28.24-5.45,45.8,3.13,14.49,13.67,12.36,23.63,31.12,2.06,3.89,17,33.06,2.59,54.74-8.13,12.23-21.83,16.44-28.86,17.96-5.82-40.12-9.57-68.66-9.85-79.52-.06-2-.19-7.64-3.89-12.36-3.04-3.86-8.01-5.5-12.69-6.96-6.57-2.05-13.14-4.08-19.71-6.11-8.23-2.56-12.39-4.03-16.34-6.73-1.99-1.37-3.72-2.84-5.16-4.28-2.32-2.28-3.99-4.54-5.17-6.32-2.61-11.64-2.79-23.68-2.98-35.61l-.13-9.03c-.06-4.08-.13-8.14-.19-12.22,6.31-6.32,11.87-13.37,16.55-20.98,2.54-4.12,5.04-8.64,9.34-10.89,2-1.04,4.26-1.5,6.35-2.35,5.89-2.36,10.2-7.59,13.21-13.18,1.77-3.28,3.21-6.87,3.26-10.6.06-8.1-7.3-15.28-15.39-15.72-8.07-.43-15.86,5.36-18.48,13.01-3.08.82-7.53,1.69-12.94,1.67-3.75-.01-25.37-.55-38.98-18.07-8.6-11.05-9.54-23.15-9.64-28.15-.4,4.22-2.16,17.13-12.62,28.73-10.66,11.8-23.63,14.78-27.76,15.57.36,18.74,2.78,37.27,11.24,53.78,3.36,6.57,7.61,12.63,11.97,18.6,4,5.47,8.54,11.19,15.01,13.2,1.4.43,2.79.66,4.21.73.48,2.29.88,4.58,1.21,6.9,1.18,8.13,1.43,16.38.76,24.56-2.25,2.16-4.44,3.98-6.54,5.53-4.81,3.56-9.15,5.66-12.46,6.99-14.23,5.69-33.41,6.31-42.08,6.67-6.73.29-14.1.69-19.04,5.27-3.31,3.07-4.64,6.7-5.27,8.54-7.92,22.95-11.89,34.43-15.44,48.3-11.09-28.48-8.04-46.09-2.65-57.13,10.03-20.54,28.64-22.53,33.81-43.42,3.66-14.75-6.11-19.95-.79-37.56,3.75-12.42,9.31-12.14,13.51-24.88,3.08-9.26,1.47-13.43-.2-39.1-1.57-24.2-2.3-36.48.55-45.6,5.07-16.24,16.02-26.33,19.59-29.39,26.74-22.89,63.29-13.71,67.29-12.63l.09.71Z"/>
    <path class="cls-2" d="m215.04,301.89l-.29-.12c.69-3.8.94-7.68.72-11.52-.56-.3-1.2.29-1.57.82-6.43,9.34-10.06,20.34-14.71,30.69-2.79,6.21-5.96,12.17-10.31,17.39-.97,1.15-2.02,2.3-3.36,3.01-1.18.62-2.52.88-3.85,1.09-5.6.89-11.32,1.15-17,.78l-.1.17c-5.86-3.62-9.93-7.66-12.42-10.47,5.81-13.95,9.22-25.54,11.24-33.42,3.56-13.87,7.52-25.35,15.44-48.3.63-1.84,1.96-5.47,5.27-8.54,4.94-4.58,12.32-4.98,19.04-5.27,8.67-.36,27.85-.98,42.08-6.67,3.31-1.33,7.65-3.43,12.46-6.99l.29.39c-4.87,13.83-.78,28.08,8.99,34.76,11.14,7.64,24.71,2.06,27.37.86,12.56-5.59,20.63-19.33,21.03-35.15l.03-.03c1.44,1.44,3.17,2.91,5.16,4.28,3.95,2.69,8.11,4.16,16.34,6.73,6.57,2.03,13.14,4.06,19.71,6.11,4.68,1.46,9.65,3.1,12.69,6.96,3.7,4.73,3.83,10.36,3.89,12.36.29,10.86,4.03,39.4,9.85,79.52.3,2.05.61,4.13.91,6.24-1.76,1.05-3.95,2.23-6.53,3.41h0c-5.17,2.39-11.91,4.73-19.98,5.81-10.36,1.38-19.33.22-26.08-1.44-3.77-.92-6.86-2.02-9.08-2.88.37-14.1.75-28.19,1.14-42.3-3.07,14.33-5.68,28.77-7.84,43.28-.27,1.82-.53,3.67-.1,5.46.43,1.83,1.54,3.41,2.56,5,8.08,12.59,10.85,27.76,13.46,42.48,1.17,6.6,2.33,13.35,1.18,19.95-1.15,6.58-5.11,13.11-11.4,15.41l.2.55c-6.41,1.99-12.84,3.59-19.28,4.81-10.3,1.96-20.64,2.94-31.03,2.94-.1,0-31.36,2.2-48.09-9.87-2.58-1.86-3.69-4.34-3.69-4.34-.24-.53-.42-1.07-.56-1.6-.69-2.74-.07-5.23.13-6.21.79-3.75.98-9.95-2.02-20.66-3.67-12.61-9.26-24.59-13.24-37.1-.43-1.35-.85-2.72-1.24-4.09-1.3-4.57-2.32-9.29-2.9-14.05-1.2-9.82-.49-19.78,3.56-28.73,3.37-7.48,8.93-13.87,11.89-21.52Zm77.56,76.99c-7-6.48-16.42-10.03-25.93-10.8-8.25-.69-15.88.95-23.81,2.91-1.87.48-5.52.06-5.78,2.56-.43,4.19,5.43,3,7.52,2.18,2.81-1.11,5.63-2.2,8.56-2.92,6.57-1.6,13.48-1.24,20.1.1,6.63,1.35,12.99,3.67,19.35,5.98Z"/>
    <path class="cls-8" d="m379.58,481.22c-4.62,0-9.25.01-13.87.01,5.27-16.83,7.79-26.22,9.26-35.19,1.12,6.8,2.15,13.83,3.04,21.11.61,4.77,1.12,9.46,1.57,14.07Z"/>
    <path class="cls-5" d="m377.42,350.99c-.01,1.77-.03,3.53-.04,5.3h-.04c-8,5.09-17.95,5.88-27.43,5.91-5.91.03-11.81-.2-17.71-.65-.27-2.07-.56-4.13-.84-6.21,6.74,1.66,15.72,2.82,26.08,1.44,8.07-1.08,14.81-3.41,19.98-5.79Z"/>
    <path class="cls-1" d="m377.38,356.29c-.16,19.71-.33,39.42-.49,59.12.17,5.83.13,14.16-1.01,24.06-.26,2.23-.55,4.39-.91,6.57-1.47,8.98-3.99,18.37-9.26,35.19-11.15.01-22.32.01-33.47.03.03-.61.06-1.2.09-1.76.59-14.97-1.25-22.57.33-38.02.12-1.08.23-2.13.36-3.17,1.43-11.37,4-20.44,5.95-26.32-2.26-16.81-4.51-33.64-6.77-50.45,5.89.45,11.8.68,17.71.65,9.48-.03,19.43-.82,27.43-5.91h.04Z"/>
    <path class="cls-1" d="m365.71,481.23c-.13.42-.27.84-.4,1.27-3.83,12.2-8.8,27.33-14.98,44.66-4.41,19.25-11.01,32.57-15.79,40.67-2.82,4.78-5.59,8.53-10.08,11.81-9.16,6.71-20.26,6.24-25.87,5.52.37-2.85,1.21-7.22,3.26-12.14,3.69-8.86,8.11-11.87,12.53-20.02,2-3.7,4.49-9.36,5.85-17.23-1.46,1.66-4.28,3.66-7.82,6.09-2.41,1.66-5.26,3.24-8.1,2.55,2.49-3.75,5.33-7.66,8.56-11.68,4.48-5.59,8.95-10.43,13.18-14.59,4.34-15.3,5.76-27.93,6.21-36.87,11.15-.01,22.32-.01,33.47-.03Z"/>
    <path class="cls-1" d="m262.26,187.53c-1.41-.07-2.81-.3-4.21-.73-6.47-2-11.01-7.72-15.01-13.2-4.37-5.96-8.61-12.03-11.97-18.6-8.46-16.51-10.88-35.04-11.24-53.78,4.13-.79,17.1-3.77,27.76-15.57,10.46-11.6,12.22-24.5,12.62-28.73.1,5,1.04,17.1,9.64,28.15,13.61,17.52,35.24,18.05,38.98,18.07,5.4.01,9.85-.85,12.94-1.67,2.62-7.65,10.42-13.44,18.48-13.01,8.08.43,15.44,7.62,15.39,15.72-.04,3.73-1.48,7.32-3.26,10.6-3.01,5.59-7.32,10.82-13.21,13.18-2.09.85-4.35,1.31-6.35,2.35-4.29,2.25-6.8,6.77-9.34,10.89-4.68,7.61-10.24,14.65-16.55,20.98-8,8.04-17.17,14.91-27.16,20.28-5.4,2.9-11.52,5.4-17.52,5.07Z"/>
    <path class="cls-3" d="m332.2,361.55c2.26,16.81,4.51,33.64,6.77,50.45-1.94,5.88-4.52,14.95-5.95,26.32-3.83,1.47-7.68,2.79-11.52,3.98l-.2-.55c6.28-2.3,10.24-8.83,11.4-15.41,1.15-6.6-.01-13.35-1.18-19.95-2.61-14.72-5.37-29.89-13.46-42.48-1.02-1.58-2.13-3.17-2.56-5-.43-1.79-.17-3.64.1-5.46,2.16-14.51,4.77-28.94,7.84-43.28-.39,14.1-.76,28.19-1.14,42.3,2.22.86,5.3,1.96,9.08,2.88.27,2.07.56,4.13.84,6.21Z"/>
    <path class="cls-8" d="m333.02,438.32c-.13,1.04-.24,2.09-.36,3.17-1.58,15.44.26,23.05-.33,38.02-.03.56-.06,1.15-.09,1.76-44.4.04-88.79.09-133.17.14,1.7-7.09,4.19-15.3,7.91-24.17,3.77-9.05,7.97-16.71,11.87-22.99.14.53.32,1.07.56,1.6,0,0,1.11,2.48,3.69,4.34,16.73,12.07,47.99,9.87,48.09,9.87,10.39,0,20.73-.98,31.03-2.94,6.44-1.22,12.86-2.82,19.28-4.81,3.85-1.18,7.69-2.51,11.52-3.98Z"/>
    <path class="cls-1" d="m315.41,225.36l-.03.03c-.4,15.82-8.47,29.56-21.03,35.15-2.67,1.2-16.24,6.77-27.37-.86-9.77-6.68-13.86-20.93-8.99-34.76l-.29-.39c2.1-1.56,4.29-3.37,6.54-5.53.66-8.18.42-16.44-.76-24.56,4.83.36,9.74.71,14.45-.45,2.1-.52,4.12-1.34,6.12-2.16,4.67-1.93,9.32-3.98,13.47-6.84,3.96-2.74,7.49-6.27,9.61-10.59l.13,9.03c.19,11.93.37,23.97,2.98,35.61,1.18,1.79,2.85,4.05,5.17,6.32Z"/>
    <path class="cls-5" d="m306.93,162.18c.06,4.08.13,8.14.19,12.22-2.12,4.32-5.65,7.85-9.61,10.59-4.15,2.87-8.8,4.91-13.47,6.84-2,.82-4.02,1.64-6.12,2.16-4.71,1.15-9.62.81-14.45.45-.33-2.32-.73-4.61-1.21-6.9,5.99.33,12.12-2.18,17.52-5.07,9.98-5.37,19.16-12.25,27.16-20.28Z"/>
    <path class="cls-3" d="m266.67,368.07c9.51.78,18.93,4.32,25.93,10.8-6.35-2.3-12.72-4.62-19.35-5.98-6.61-1.34-13.53-1.7-20.1-.1-2.92.72-5.75,1.82-8.56,2.92-2.09.82-7.95,2.02-7.52-2.18.26-2.51,3.9-2.09,5.78-2.56,7.94-1.96,15.56-3.6,23.81-2.91Z"/>
    <path class="cls-3" d="m215.47,290.25c.22,3.85-.03,7.72-.72,11.52l.29.12c-2.95,7.65-8.51,14.05-11.89,21.52l-3.96-1.66c4.65-10.34,8.28-21.35,14.71-30.69.37-.53,1.01-1.12,1.57-.82Z"/>
    <path class="cls-5" d="m203.73,370.28h-.01c-.45,1.41-.88,2.77-1.28,4.06-.98-2.88-3.28-5.06-5.68-6.91-8.21-6.35-18.09-10.13-27.93-13.44-1.9-.65-3.86-1.31-5.39-2.62h-.06c.65-2.25,1.3-4.48,1.93-6.71,1.71,1.02,3.57,2,5.58,2.91,12.32,5.56,23.5,5.11,28.71,4.58.58,4.75,1.6,9.48,2.9,14.05.39,1.37.81,2.74,1.24,4.09Z"/>
    <path class="cls-3" d="m199.19,321.76l3.96,1.66c-4.05,8.95-4.75,18.9-3.56,28.73-5.22.53-16.39.98-28.71-4.58-2-.91-3.86-1.89-5.58-2.91-.24-.14-.49-.29-.73-.45l.1-.17c5.68.37,11.4.12,17-.78,1.33-.22,2.67-.48,3.85-1.09,1.34-.71,2.39-1.86,3.36-3.01,4.35-5.22,7.52-11.18,10.31-17.39Z"/>
    <path class="cls-1" d="m172.78,407.08c-.03-6.55-.53-13.11-1.53-19.58-.48-3.05-1.05-6.12-2.2-9-2.06-5.22-5.81-9.55-9.52-13.77,1.28-4.47,2.56-8.92,3.85-13.38h.06c1.53,1.33,3.49,1.99,5.39,2.64,9.84,3.31,19.72,7.09,27.93,13.44,2.39,1.86,4.7,4.03,5.68,6.91-1.8,5.69-3.24,10.33-4.25,13.61-3.23,10.4-4.42,13.96-6.44,20.28-2.59,8.2-4.24,12.19-5.26,14.15-2.69,5.19-9,13.73-25.54,19.78-20.93-10.08-31.32-23.58-35.97-30.84-9.98-15.56-12.23-31.33-14.74-49.07-1.84-13.02-2.51-27.16-3.17-41.2-.56-11.99-1.14-30.94-10.08-39.72-3.41-3.34-7.81-6.63-7.81-6.63-3.89-2.45-7.79-4.9-11.7-7.36-5.52-3.47-11.14-7.03-15.34-12.01-7.06-8.36-9.35-19.92-8.54-30.83s4.39-21.39,7.97-31.74c1.84.91,4.67,2.52,7.38,5.26,8.87,8.99,6.34,19.75,11.71,30.93,2.48,5.14,7.39,11.96,18.24,17.96-.69-3.86-1.25-8.2-1.53-12.97-.32-5.78-.16-11.02.23-15.57,3.46,3.39,8.46,8.98,12.45,16.91,6.15,12.2,6.55,23.29,6.8,27.11,1.94,30.28,20.82,65.25,41.03,102.93.26.48.59,1.09.98,1.83,2.23,4.22,6.43,12.61,9.94,23.87,2.1,6.76,3.33,12.46,4,16.05Z"/>
    <path class="cls-5" d="m172.78,407.08c-.68-3.59-1.9-9.29-4-16.05-3.52-11.27-7.71-19.65-9.94-23.87.23-.81.46-1.63.69-2.43,3.72,4.22,7.46,8.56,9.52,13.77,1.15,2.88,1.73,5.95,2.2,9,.99,6.47,1.5,13.02,1.53,19.58Z"/>
  </g>
</svg>