<?xml version="1.0" encoding="UTF-8"?>
<svg id="Layer_9" data-name="Layer 9" xmlns="http://www.w3.org/2000/svg" viewBox="0 0 376.02 595.28">
  <defs>
    <style>
      .cls-1 {
        fill: #e2c698;
      }

      .cls-2 {
        fill: #914100;
      }

      .cls-3 {
        fill: #e8dac8;
      }

      .cls-4 {
        fill: #723100;
      }

      .cls-5 {
        fill: #d3a159;
      }

      .cls-6 {
        fill: #d6a87f;
      }

      .cls-7 {
        fill: #f7e6cb;
      }

      .cls-8 {
        fill: #0c0700;
      }

      .cls-9 {
        fill: #ffeddc;
      }

      .cls-10 {
        fill: #e8c59c;
      }
    </style>
  </defs>
  <rect class="cls-7" x="273.41" y="466.91" width="102.61" height="51.52" rx="8.33" ry="8.33"/>
  <rect class="cls-7" x="241.38" y="534.68" width="102.61" height="51.52" rx="8.33" ry="8.33"/>
  <rect class="cls-7" x="0" y="80.73" width="102.61" height="51.52" rx="8.33" ry="8.33"/>
  <rect class="cls-5" x="8.47" y="157.36" width="365.8" height="284.43" rx="41.48" ry="41.48"/>
  <g>
    <path class="cls-2" d="m359.89,337.11c1.92,10.53,2.57,21.8-1.7,31.63-2.65,6.09-7.03,11.26-11.67,16.01-2.24,2.3-4.62,4.56-7.54,5.92-2.95,1.37-6.25,1.71-9.49,1.86-5.13.24-9.21.5-13.8-1.35-6.06-2.45-9.54-7.1-11.14-9.68,1.45-.52,8.86-3.37,12.75-11.56,4.06-8.52,1.22-16.38.7-17.74,6.45.25,11.62.17,15.22.04,3.71-.13,6.29-.34,9.84.37,3.9.77,6.94,2.22,8.92,3.36.4-.98.93-2.71.27-4.34-1.06-2.59-4.44-3.32-6.29-3.71-8.99-1.95-24.15,3-27.95,4.29l30.39-62.1c.12.48.24.94.36,1.42,2.27,8.95,4.55,17.91,6.82,26.86,1.58,6.21,3.16,12.43,4.31,18.73Z"/>
    <path class="cls-3" d="m358.46,269.54l-10.06,20.54c-1.59-6.39-3.17-12.79-4.76-19.18l4.9,1.68,5.41-4.62,4.51,1.58Z"/>
    <path class="cls-5" d="m354.64,267.36l-.69.6-12.1-4.25c-.08-.32-.16-.64-.23-.96l13.01,4.6Z"/>
    <path class="cls-5" d="m353.95,267.96l-5.41,4.62-4.9-1.68c-.6-2.39-1.19-4.79-1.79-7.18l12.1,4.25Z"/>
    <path class="cls-4" d="m352.25,351.62c.66,1.63.13,3.36-.27,4.34-1.98-1.14-5.01-2.59-8.92-3.36-3.56-.72-6.13-.5-9.84-.37-3.6.13-8.77.21-15.22-.04,3.81-1.29,18.96-6.24,27.95-4.29,1.84.4,5.23,1.13,6.29,3.71Z"/>
    <path class="cls-3" d="m348.4,290.08h0s-30.39,62.11-30.39,62.11c-8.41-7.03-16.11-11.98-21.93-15.34-6.81-3.94-11.58-6-15.1-6.96l16.16-32.2,3.86-7.69,17.34-34.53,8.92,3.13v6.69l16.38,5.61c1.59,6.39,3.17,12.79,4.76,19.18Z"/>
    <path class="cls-5" d="m341.85,263.72c.6,2.39,1.19,4.79,1.79,7.18l-16.38-5.61v-6.69l14.59,5.12Z"/>
    <path class="cls-5" d="m341.62,262.76c.07.32.15.64.23.96l-14.59-5.12v-.9l14.37,5.07Z"/>
    <path class="cls-2" d="m341.62,262.76l-14.37-5.07v.9l-8.92-3.13-17.34,34.53c-.73-4.35-1.42-8.27-2.03-11.58-.92-5.05-1.65-8.76-2.04-10.63-.19-.89-.57-2.65-2.04-3.97-1.15-1.02-2.4-1.34-3-1.46-.29,17.42-4.7,30.46-9.29,34.4-2.35,2.02-4.97,3.38-4.97,3.38-3.18,1.66-6.09,2.32-9.41,2.83-6.53,1.01-12.83,1.15-18.04.98,4.71,2.39,8.73,3.54,11.67,4.15,3.37.7,6.1.85,8.05,3.09,1.11,1.29,1.51,2.71,1.95,5.4.5,3.1,1.01,7.52.97,13.01-4.7,1.33-7.93,4.75-8.45,5.31-3.04,3.22-4.02,6.53-5.17,10.43-.82,2.79-2.53,8.82-.88,16.19.42,1.88.64,2.83,1.14,3.71.6,1.02,1.42,1.94,2.41,2.73l-13.73,27.36,27.01,2.53c3.71,16.68,7.43,33.37,11.14,50.04v.08c-20.63,4.14-38.26,2.68-49.87.74.16-.84.31-1.67.45-2.51,5.7-31.87,5.51-57.27,4.17-74.97-.45-6.1-3.64-45.29-4.84-76.42-.16-4.19-.46-13.08,1.06-24.58.29-2.23.64-4.36,1.01-6.38,8.8-8.52,15.63-12.82,20.58-15.2,1.96-.96,7.44-3.44,7.83-7.39.11-1.07-.08-2.08-.77-3.81-.94-2.35-2.03-4.64-3.25-6.86,1.63-1.23,2.83-2.37,3.99-4.13,2.72-4.06,2.71-9.3,2.61-14.18-.16-7.62-.32-15.22-.48-22.83-.09-3.97-.17-7.92.29-11.86.04,0,.08.01.12.01,27.54,3.79,38.31,2.3,47.84,10.55,3.02,2.61,7.42,7.5,10.19,16.69,4.79,19.3,9.59,38.59,14.39,57.9Z"/>
    <path class="cls-1" d="m318.01,352.19c.52,1.35,3.36,9.22-.7,17.74-3.89,8.19-11.3,11.04-12.75,11.56-.13-.13-.27-.28-.41-.44-.03-.13-.04-.27-.05-.4l13.92-28.46Z"/>
    <path class="cls-1" d="m318.01,352.19l-13.92,28.46-.12.23c-.6-.68-1.3-1.58-1.96-2.72-1.66-2.91-1.11-4.1-2.65-6.2-1.42-1.92-3.3-2.83-4.78-3.53-1.38-.66-3.13-1.51-5.21-1.42-2.72.12-4.47,1.76-5.76,2.65-5.69,3.95-16.28,2.79-21.73-1.68l19.1-38.09c3.52.97,8.29,3.02,15.1,6.96,5.82,3.36,13.52,8.3,21.93,15.34Z"/>
    <path class="cls-4" d="m313.11,421.93c1.7,5.37,3.53,10.45,5.44,15.26-8.19,3.93-18.94,8.11-31.97,10.75-.09.01-.17.04-.27.05v-.08c-3.73-16.68-7.44-33.37-11.16-50.04l19.61,1.83,9.21-18.83.17.17c1.54,12.28,4.29,26.12,8.97,40.89Z"/>
    <path class="cls-8" d="m287.85,15.1c3.7,2.63,18.67,13.31,16.64,29.09-1.51,11.74-11.45,18.48-13.45,19.78-1.26-11.58-5.74-22.95-14.75-31.08-9.33-8.42-20.75-10.85-28.74-11.48,1.03-3.29,3.42-9.01,8.92-12.34,12.43-7.52,28.99,4.3,31.39,6.02Z"/>
    <path class="cls-3" d="m275.16,397.87l-27.01-2.53,13.73-27.36c5.45,4.47,16.04,5.64,21.73,1.68,1.29-.89,3.04-2.53,5.76-2.65,2.08-.09,3.83.76,5.21,1.42,1.47.7,3.36,1.61,4.78,3.53,1.54,2.1.99,3.29,2.65,6.2.66,1.14,1.37,2.04,1.96,2.72l-9.21,18.83-19.61-1.83Z"/>
    <path class="cls-4" d="m298.97,278.41h-.09c-.57,6.43-1.15,12.86-1.74,19.28l-16.16,32.2c-3.93-1.09-6.29-.81-8.16-.28.04-5.49-.46-9.91-.97-13.01-.44-2.69-.84-4.11-1.95-5.4-1.95-2.24-4.68-2.39-8.05-3.09-2.95-.61-6.96-1.76-11.67-4.15,5.21.17,11.52.03,18.04-.98,3.32-.5,6.22-1.17,9.41-2.83,0,0,2.63-1.37,4.97-3.38,4.59-3.94,8.99-16.98,9.29-34.4.6.12,1.84.44,3,1.46,1.47,1.31,1.86,3.08,2.04,3.97.4,1.87,1.13,5.57,2.04,10.63Z"/>
    <path class="cls-8" d="m180.77,68.64c-.16,4.36-.32,8.78-.36,13.2h-.01c-1.84-3.09-4.55-8.68-4.55-15.84,0-6.14,2.23-10.53,5.31-17.72,2.56-6.02,5.63-11.94,10.08-16.74,6.14-6.62,14.71-10.75,23.6-12.32,8.9-1.58,18.51-.32,27.24,2.02,1.53-.01,3.38.03,5.48.19,7.99.62,19.41,3.05,28.74,11.48,9.01,8.13,13.49,19.5,14.75,31.08,1.71,15.72-2.51,31.81-9.35,40.66-2.3,2.98-11.38,13.52-19.9,20.6-.89.74-3.69,3.04-7.38,6.38-3.79,3.45-6.89,6.5-9.15,8.82.17-2.65.44-5.15.74-7.44h-.01c4.38-4.5,8.24-9.45,11.5-14.78,1.88-3.08,3.75-6.43,6.95-8.11,1.49-.77,3.16-1.11,4.72-1.74,4.38-1.76,7.58-5.65,9.82-9.8,1.33-2.44,2.39-5.11,2.41-7.89.05-6.01-5.43-11.36-11.42-11.67-6.01-.32-11.79,3.98-13.74,9.67-1.47,2.98-2.95,5.97-4.4,8.95,2.28-15.16-.65-21.12-4.03-23.64-2.77-2.07-6.12-2.03-9.99-6.01-2.59-2.67-3.71-5.4-5.04-8.66-1.37-3.38-3.08-8.76-3.45-15.84-.48,2.73-1.7,7.3-5.21,11.44-5.12,6.04-12.15,7.65-15.06,8.29-11.42,2.48-18.08-2.55-25.21,2.52-1.46,1.03-2.47,2.16-3.06,2.92Z"/>
    <path class="cls-1" d="m269.97,79c6,.32,11.48,5.66,11.42,11.67-.03,2.79-1.09,5.45-2.41,7.89-2.24,4.15-5.44,8.04-9.82,9.8-1.57.62-3.24.97-4.72,1.74-3.2,1.67-5.07,5.03-6.95,8.11-3.26,5.33-7.12,10.28-11.5,14.77-6.12,6.34-13.23,11.73-20.99,15.91-3.67,1.98-7.8,3.69-11.87,3.78-1.43.04-2.87-.12-4.27-.56-4.83-1.5-8.2-5.74-11.17-9.8-3.24-4.43-6.39-8.95-8.9-13.84-7.3-14.24-8.54-30.46-8.37-46.63.04-4.42.2-8.84.36-13.2.6-.76,1.61-1.88,3.06-2.92,7.12-5.07,13.78-.04,25.21-2.52,2.91-.64,9.94-2.26,15.06-8.29,3.52-4.14,4.74-8.7,5.21-11.44.37,7.08,2.08,12.46,3.45,15.84,1.33,3.26,2.45,6,5.04,8.66,3.87,3.98,7.22,3.94,9.99,6.01,3.38,2.52,6.31,8.48,4.03,23.64,1.46-2.98,2.93-5.97,4.4-8.95,1.95-5.69,7.73-9.99,13.74-9.67Z"/>
    <path class="cls-1" d="m280.98,329.89l-19.1,38.09c-.99-.8-1.82-1.71-2.41-2.73-.5-.89-.72-1.83-1.14-3.71-1.66-7.36.05-13.4.88-16.19,1.15-3.9,2.14-7.2,5.17-10.43.52-.56,3.75-3.98,8.45-5.31,1.87-.53,4.23-.81,8.16.28Z"/>
    <path class="cls-4" d="m262.66,230.61c-1.35,1.01-3.02,2.1-5.23,3.62-3.6,2.48-8.73,6.29-14.65,11.67.54-1.67,1.01-3.06,1.38-4.14,4.42-13,10.43-32.97,17.96-64.79l.07-.38c2.15.33,4.46.68,6.89,1.02-.46,3.94-.38,7.89-.29,11.86.16,7.62.32,15.22.48,22.83.09,4.88.11,10.12-2.61,14.18-1.17,1.75-2.36,2.89-3.99,4.13Z"/>
    <path class="cls-4" d="m265.91,237.47c.69,1.72.88,2.73.77,3.81-.38,3.95-5.86,6.43-7.83,7.39-4.95,2.39-11.78,6.69-20.58,15.2,1.38-7.62,3.14-13.72,4.51-17.96,5.92-5.39,11.05-9.19,14.65-11.67,2.2-1.53,3.87-2.61,5.23-3.62,1.22,2.22,2.31,4.51,3.25,6.86Z"/>
    <path class="cls-9" d="m262.2,176.59l-.07.38c-7.54,31.83-13.55,51.79-17.96,64.79-.37,1.07-.84,2.47-1.38,4.14-1.37,4.25-3.13,10.35-4.51,17.96-.37,2.02-.72,4.15-1.01,6.38-1.53,11.5-1.22,20.39-1.06,24.58,1.21,31.12,4.39,70.31,4.84,76.42,1.34,17.7,1.54,43.1-4.17,74.97-10,.52-21.08.62-33.06,0-11.58-.6-22.23-1.79-31.87-3.28h-.09c.08-10.39.31-25.09.93-42.67,1.23-34.67,2.4-35.74,4.02-72.38,1.74-39.22,1.18-48.45,4.22-70.42.07-.58.16-1.17.24-1.76,1.03-7.27,2.12-13.51,3.12-18.73.94-4.92,1.82-8.95,2.49-12.09,2.33-10.89,5.57-26.44,9.7-47.96,2.41-.17,4.67-.4,6.75-.65-2.12,14.31-3.61,24.13-4.35,29.03-2.35,15.54-3.73,22.98.9,27.22,2.97,2.73,7.77,3.4,9.98,3.69,0,0,5.59.77,11.3-1.01,12.01-3.73,17.62-16.23,23.93-30.47,3.06-6.9,6.73-16.73,9.18-29.13l.05-.33c2.33.41,4.97.86,7.87,1.31Zm-32.73,126.14c.19-.78-10.48-5.45-23.75-6.1-12.87-.62-23.71,2.75-23.61,3.52.08.66,8.17-.77,21.96-.17,15.91.69,25.23,3.48,25.41,2.76Z"/>
    <path class="cls-1" d="m247.78,174.06c1.75.34,3.97.77,6.55,1.22l-.05.33c-2.45,12.4-6.12,22.23-9.18,29.13-6.31,14.25-11.93,26.75-23.93,30.47-5.72,1.78-11.3,1.01-11.3,1.01-2.2-.29-7-.96-9.98-3.69-4.63-4.25-3.25-11.69-.9-27.22.74-4.9,2.23-14.71,4.35-29.03,4.11-.49,7.56-1.05,10.19-1.54.6-4.01.94-8.8.6-14.16,4.86-.01,9.51-1.96,13.89-4.11,6.65-3.25,13.37-7.27,17.05-13.68h.05c-.15,3.16-.19,6.53-.05,10.08.31,8.16,1.41,15.31,2.72,21.17Z"/>
    <path class="cls-6" d="m245.25,140.44c-.05.77-.11,1.55-.15,2.36h-.05c-3.67,6.41-10.4,10.43-17.05,13.68-4.38,2.15-9.03,4.1-13.89,4.11-.03-.48-.07-.96-.11-1.43-.2-2.31-.52-4.47-.89-6.47h0c4.07-.11,8.2-1.82,11.87-3.79,7.76-4.18,14.87-9.57,20.99-15.91h.01c-.31,2.31-.57,4.8-.74,7.46Z"/>
    <path class="cls-10" d="m205.72,296.63c13.27.65,23.93,5.32,23.75,6.1-.17.72-9.5-2.07-25.41-2.76-13.78-.6-21.88.84-21.96.17-.09-.77,10.75-4.14,23.61-3.52Z"/>
    <path class="cls-4" d="m192.71,177.2c1.33-.07,2.63-.16,3.87-.27-4.13,21.52-7.36,37.07-9.7,47.96-.68,3.13-1.55,7.16-2.49,12.09h-.08c-.66-1.26-1.68-3.13-2.97-5.35-1.37-2.33-2.43-3.95-3.25-5.17-1.49-2.22-2.22-3.17-2.61-4.71-1.17-4.51.49-9.22,2.14-13.6,2.98-7.97,4.48-11.63,7.63-20.39,1.59-4.42,2.71-8.07,3.4-10.39,1.3-.04,2.65-.09,4.07-.17Z"/>
    <path class="cls-2" d="m159.57,357.24c-1.88,6.69-5.61,16.28-13.4,25.51-2.71,3.21-5.48,5.86-8.09,8.05-4.22.24-10.31-.07-16.64-2.97,0,0-4.86-2.24-9.11-6.26-7.68-7.28-23.84-47.28-40.6-103.69.27-.11.53-.21.81-.31h0c2.97-1.17,6.02-2.31,9.15-3.44,3.93-1.42,7.77-2.73,11.54-3.97,10.89,16.73,20.5,29.12,27.46,37.57,1.58,1.91,3.21,3.86,4.87,5.92,5.05,6.28,10.26,13.55,14.34,23.88,2.48,6.26,3.78,11.74,4.5,15.48l.27-.05c.17-2,.31-4.8.15-8.11-.48-9.91-3.26-17.18-5.29-22.33-2.15-5.48-5.74-13.01-11.83-21.07,3.3-18.55,7.08-37.64,11.41-57.22,3.67-16.64,7.55-32.76,11.58-48.36,2.44-8.68,6.47-12.8,9.64-14.98,6.83-4.66,13.97-3.12,28.31-3.54-.69,2.32-1.8,5.97-3.4,10.39-3.14,8.76-4.64,12.42-7.63,20.39-1.65,4.38-3.3,9.09-2.14,13.6.4,1.54,1.13,2.49,2.61,4.71l-.11.07c-1.88,1.67-3.66,3.46-5.31,5.35-.82.94-1.65,1.96-1.9,3.2-.27,1.3.16,2.64.68,3.87,2.68,6.42,8,11.71,9.5,18.52h.08c-3.04,21.98-2.48,31.22-4.22,70.43-1.62,36.64-2.79,37.72-4.02,72.38-.62,17.58-.85,32.28-.93,42.67-.01,1.15-.01,2.24-.03,3.29-3.14.66-9.83,1.65-17.71-.78-6.96-2.15-11.6-5.96-13.88-8.13,3.08-7.14,6.89-16.85,10.35-28.66,5.63-19.21,8-36.05,8.97-51.42Zm.25-4.68c.49-10.51.4-20.35.33-29.86-.11-14.87.16-22.05-3.98-29.72-3.45-6.37-7.54-9.37-9.55-17.51-1.88-7.59-.56-14.01.27-17.78,2.85-13.15,9.41-16.52,14.59-31.04,2.36-6.62,3.29-12.34,3.71-15.92h.04c-.07-1.02-.24-2.02-.68-2.12-1.38-.32-3.73,8.65-8.52,19.52-7.06,16-12.02,19.38-13.73,31.95-.25,1.94-.57,4.39-.46,7.71.42,13.09,6.85,18.51,11.67,31.71,2.26,6.16,2.98,11.49,4.44,22.16,1.68,12.14,1.9,22.7,1.63,30.92h.23Z"/>
    <path class="cls-4" d="m184.39,236.98c-.99,5.23-2.08,11.46-3.12,18.73-.08.6-.17,1.18-.24,1.76h-.08c-1.5-6.82-6.82-12.11-9.5-18.53-.52-1.23-.94-2.57-.68-3.87.25-1.23,1.07-2.26,1.9-3.2,1.65-1.88,3.42-3.67,5.31-5.35l.11-.07c.82,1.22,1.88,2.84,3.25,5.17,1.29,2.22,2.31,4.09,2.97,5.33h.08Z"/>
    <path class="cls-4" d="m165.23,210.73h-.04c-.42,3.58-1.35,9.3-3.71,15.92-5.19,14.53-11.74,17.9-14.59,31.04-.82,3.77-2.15,10.19-.27,17.78,2.02,8.15,6.1,11.14,9.55,17.51,4.14,7.67,3.87,14.85,3.98,29.72.07,9.51.16,19.36-.33,29.86h-.23c.27-8.23.05-18.79-1.63-30.92-1.46-10.67-2.19-16-4.44-22.16-4.83-13.2-11.25-18.61-11.67-31.71-.11-3.32.21-5.77.46-7.71,1.71-12.56,6.67-15.95,13.73-31.95,4.79-10.87,7.14-19.83,8.52-19.52.44.11.61,1.1.68,2.12Z"/>
    <path class="cls-4" d="m144.81,344.87c.16,3.3.03,6.1-.15,8.11l-.27.05c-.72-3.74-2.02-9.22-4.5-15.48-4.09-10.33-9.29-17.6-14.34-23.88.69-4.03,1.39-8.11,2.12-12.19,6.09,8.05,9.68,15.59,11.83,21.07,2.03,5.15,4.82,12.42,5.29,22.33Z"/>
    <path class="cls-1" d="m88.78,257.96c.96,2.77,2.47,7,4.46,12.22-3.77,1.23-7.62,2.55-11.54,3.97-3.13,1.13-6.18,2.27-9.15,3.42-.6-3.3-1.99-7.91-5.77-11.21-3.6-3.14-7.77-3.52-9.38-4.02-11.77-3.65-22.21-10.97-30.54-20.06-8.32-9.09-14.62-19.89-19.53-31.19-.98-2.23-1.91-4.56-1.86-7,0,0,.03-1.3.05-2.87.41-1.45,1.02-2.85,1.79-4.15,2.4-.31,4.82.7,6.74,2.16s3.45,3.37,5.04,5.19c10.68,12.3,24.8,21.65,40.68,25.29-6.5-5.48-9.7-14.59-8.05-22.92,2.53,3.38,5.25,6.63,8.12,9.74,12.15,13.13,15.68,13.68,20.97,22.22,3.62,5.86,4.79,10.08,7.97,19.22Z"/>
  </g>
</svg>